<svg id="Capa_1" data-name="Capa 1" xmlns="http://www.w3.org/2000/svg" viewBox="0 0 457.4 345.81"><defs><style>.cls-1{stroke:#000;stroke-miterlimit:10;stroke-width:2px;}.cls-2{fill:#fff;}</style></defs><path class="cls-1" d="M90.31,282.86c.74-.32,1.06-.32,1.27-.53,11-8.34,22-16.58,32.74-25,2.54-1.9,4.55-4.54,6.76-7a4.85,4.85,0,0,0,1.48-4.54c-1.37-.22-3-.64-4.43-.74-6.45-.43-12.68.74-18.91,2.53a80.29,80.29,0,0,0-27.67,14.26,74,74,0,0,0-7.71,7.39c-1.27,1.27-2.43,2.86-1.59,4.86-3.69-.42-5.07-2.32-3.27-5.07a38.39,38.39,0,0,1,6.12-7.5,79.88,79.88,0,0,1,37.39-18.9,46.8,46.8,0,0,1,13.84-1.27c3.06.21,6,.84,8.34,3,2.65,2.32,3.38,4.75,1.59,7.71a31.71,31.71,0,0,1-5.49,6.76c-4,3.69-8.24,7.07-12.47,10.35s-8.45,6.12-12.57,9.19a12.56,12.56,0,0,0-2.43,2.32c1.8-.42,3.6-.95,5.5-1.37a31.19,31.19,0,0,1,12.14-1.06c6.76.64,10.46,6,8.14,12.47a43,43,0,0,1-5.5,9.82A75.9,75.9,0,0,1,83.77,328,96.81,96.81,0,0,1,69.19,331a11.21,11.21,0,0,1-9.3-2.74,4.81,4.81,0,0,1-1.26-2.75,25.9,25.9,0,0,0,5.7,1.37,27.17,27.17,0,0,0,5.81-.21c2-.32,3.91-.84,6.13-1.37-1.8-3.06-1.17-6.13-.53-9,4.12-18.91,9.29-37.49,17.32-55.24.53-1.16,1.06-2.32,1.69-3.48,1.48-2.54,1.9-2.54,4.65-.32C96.44,265.85,93,274,90.31,282.86Zm-8.13,40.66A82.84,82.84,0,0,0,118.83,298a61.2,61.2,0,0,0,5.81-9,12.56,12.56,0,0,0,1.06-4c.21-1.58-.32-2.85-2.12-3.06a43.42,43.42,0,0,0-6.44-.32A63.19,63.19,0,0,0,91,291.1c-.85.53-1.48,1.58-2.33,1.69-1.69.1-1.79,1-2.11,2.22-2.11,7.81-4.22,15.63-6.23,23.44-.42,1.8-.42,3.59-.74,5.71C80.7,323.84,81.44,323.73,82.18,323.52Z"/><path class="cls-1" d="M158.87,294.06c2.53-3,4.64.42,2.11,2.85-5.39,5.17-6.87,7.07-12.25,12.35a25.4,25.4,0,0,1-6.34,4.76c-4.23,2.21-8.24.31-8.66-4.23a28.35,28.35,0,0,1,.84-9.4c.74-3.91,2.22-7.81,3.17-11.93a25.06,25.06,0,0,1-2.53-.85c-.64-.42-1-1.27-1.69-2.32a20.57,20.57,0,0,0,2.53-.42,8.51,8.51,0,0,0,5.39-4.86A104,104,0,0,1,155.7,255.5a74.69,74.69,0,0,1,7.6-7.6,14.73,14.73,0,0,1,2.75-1.69c3.27-1.9,6.86,1.58,6.23,4.22a21.55,21.55,0,0,1-2,5.71A67,67,0,0,1,158.55,271c-3.7,3.7-7.71,7.29-11.62,10.88a9.58,9.58,0,0,0-2.11,2.53c-3.17,7.61-6,15.32-7,23.45-.64,6.23,3.69,2.22,6.76-.21C151.26,302.4,153.48,300.39,158.87,294.06Zm-8.56-20.18c7.39-7.29,14.37-14.26,18.59-24.4C162.67,252.65,152.32,266.38,150.31,273.88Z"/><path class="cls-1" d="M179.78,303.35a9.72,9.72,0,0,0,5.39-1.48c3.69-2.22,8.76-5.17,12.46-7.39,1.59-1,1.59-.64,3.06,1.16a17.94,17.94,0,0,1-1.58,1.48c-3.8,2.53-7.61,5.07-11.41,7.39a13.23,13.23,0,0,1-4.86,1.69c-5.07.53-8-2.74-7.18-7.71.11-.42.21-.84.42-1.79-2.11,1.69-3.69,3.06-5.38,4.33s-3.17,2.21-4.76,3.27a5.13,5.13,0,0,1-5.59-.21c-1.38-.95-2.12-2.22-1.48-3.91a14.52,14.52,0,0,1,1.58-3.48,46,46,0,0,1,12.36-13.52,29.86,29.86,0,0,1,4-2.33c4.86-2.43,8.88-.21,13.1,2.54C185.59,289.83,180.63,295.32,179.78,303.35Zm4.54-20.28c-6.23-.21-16.47,8.77-19.85,17.22C171.86,295.11,178,289.3,184.32,283.07Z"/><path class="cls-1" d="M219.29,283.6a6.66,6.66,0,0,0,.21-1.59c-7.5,2.22-15.42,12.47-15.11,20.28.21,4.55,4.76,2.85,7.4,2.22a50.45,50.45,0,0,0,16.68-9.61c1.91-1.37.85-2.11,3.07-1.06,1,.64,1.16,1.48.31,2.22a52.23,52.23,0,0,1-20.27,11.51,10.24,10.24,0,0,1-7.71-.63,6.42,6.42,0,0,1-4-5.49c-.42-7.82,4-14.89,10-19.44a13.64,13.64,0,0,1,6.23-2.95,7.5,7.5,0,0,1,6.23,2,2.8,2.8,0,0,1,.84,3.59,23.37,23.37,0,0,1-2.43,3.91c-1.26,1.48-2.11,1.38-4-.1C217.7,286.77,218.44,285.18,219.29,283.6Z"/><path class="cls-1" d="M255.09,287.4a54.74,54.74,0,0,1-10.88,8c1.06,4.12,2.12,12.36,7.19,9.29,4.75-2.64,9.08-6.65,13.09-9.93,1.27-1.16,1.8-.73,3.07.74a2.5,2.5,0,0,1-.85,1.17c-4.12,3.27-8.13,6.76-12.46,9.61-6.13,4-11.52,1.9-13.84-4.65-.42-1.06-.53-2.11-.95-3.38-2.53.84-4.44,2-5.28,5-1.06,4.44-2.54,8.66-2.75,13.31-3.17-.63-3.9-1.27-3.69-3.91a26.09,26.09,0,0,1,1.16-6.44c1.48-5,3.17-9.93,4.54-14.89a11.32,11.32,0,0,0,.84-2.43c-1.26-.74-3.16-.42-3.37-2.75a12.46,12.46,0,0,0,1.68-.42,7.22,7.22,0,0,0,5.07-4.54A99.19,99.19,0,0,1,252.45,255a42,42,0,0,1,7.08-7.28c2.53-2,5.81-.21,5.91,3.06a9.69,9.69,0,0,1-.74,3.49,33.51,33.51,0,0,1-2.74,5.91,78.85,78.85,0,0,1-17.54,21.65,15.73,15.73,0,0,0-5.07,7.4c-.52,1.48-1.16,2.95-1.69,4.43,6.55-3.48,12.15-9,14.69-10.67C253.72,282,257.42,285,255.09,287.4Zm-10.45-10.14a94.75,94.75,0,0,0,16.26-20.07c4-7.18.42-5.91-2.85-1.9C252.56,261.63,247.8,270.4,244.64,277.26Z"/><path class="cls-1" d="M248.23,331.34c-4.54-1.8-8-5-11.3-8.45-1.27-1.48-1.59-3.49,0-4.75,8.23-6.87,19.11-8.24,26.4-14.68a9.2,9.2,0,0,0,3.8-5.71c1.17-4.12,1.69-7.6,2.43-10.88.32-2.11.53-2.22,2.12-1.79,1.69.63,2.43.52,2.11,2.43a133,133,0,0,1-3.17,13.3c3.17-1.79,6.44-3.8,9.82-6.12,1.27-.85,1.48-.63,2.11-.21s.32,1.37-1.05,2.74A48.39,48.39,0,0,1,269.25,305c-3.07,9.61-7.5,19.33-12.15,24.19A7.57,7.57,0,0,1,248.23,331.34Zm-7-11.51c-1.27.95-1.17,2.32.1,3.38,2,1.69,4,3.38,6,5a2.78,2.78,0,0,0,3.81,0,6.44,6.44,0,0,0,2.11-2c4.12-5.07,6.76-11.09,9.08-17.32C255.09,313.28,246.33,315.92,241.26,319.83Zm30.2-43.31a24.27,24.27,0,0,1,.85-2.43c.53-1.37,1.58-1.27,2.64-.95s.42,5.18-.11,6.34c-.73,1.79.22,2.43-2.32,1.16C270.94,279.9,270.94,278.21,271.46,276.52Z"/><path class="cls-1" d="M301.78,303.35a9.66,9.66,0,0,0,5.38-1.48c3.7-2.22,8.77-5.17,12.47-7.39,1.58-1,1.58-.64,3.06,1.16a21.27,21.27,0,0,1-1.58,1.48c-3.81,2.53-7.61,5.07-11.41,7.39a13.23,13.23,0,0,1-4.86,1.69c-5.07.53-8-2.74-7.18-7.71.1-.42.21-.84.42-1.79-2.11,1.69-3.7,3.06-5.39,4.33s-3.16,2.21-4.75,3.27a5.15,5.15,0,0,1-5.6-.21c-1.37-.95-2.11-2.22-1.48-3.91a15,15,0,0,1,1.59-3.48,45.76,45.76,0,0,1,12.36-13.52,29.25,29.25,0,0,1,4-2.33c4.86-2.43,8.87-.21,13.1,2.54C307.59,289.83,302.62,295.32,301.78,303.35Zm4.54-20.28c-6.23-.21-16.48,8.77-19.86,17.22C293.86,295.11,300,289.3,306.32,283.07Z"/><path class="cls-1" d="M341.28,283.6a6.19,6.19,0,0,0,.21-1.59c-7.5,2.22-15.42,12.47-15.1,20.28.21,4.55,4.75,2.85,7.39,2.22a50.4,50.4,0,0,0,16.69-9.61c1.9-1.37.85-2.11,3.06-1.06,1,.64,1.17,1.48.32,2.22-6.34,5.49-12,9-20.28,11.51a10.25,10.25,0,0,1-7.71-.63,6.41,6.41,0,0,1-4-5.49c-.42-7.82,4-14.89,10-19.44a13.74,13.74,0,0,1,6.23-2.95,7.53,7.53,0,0,1,6.24,2,2.81,2.81,0,0,1,.84,3.59,24,24,0,0,1-2.43,3.91c-1.27,1.48-2.11,1.38-4-.1C339.7,286.77,340.44,285.18,341.28,283.6Z"/><path class="cls-1" d="M377.09,287.4a55,55,0,0,1-10.88,8c1.06,4.12,2.11,12.36,7.18,9.29,4.76-2.64,9.09-6.65,13.1-9.93,1.27-1.16,1.79-.73,3.06.74a2.41,2.41,0,0,1-.84,1.17c-4.12,3.27-8.14,6.76-12.47,9.61-6.12,4-11.51,1.9-13.83-4.65-.42-1.06-.53-2.11-1-3.38-2.54.84-4.44,2-5.28,5-1.06,4.44-2.54,8.66-2.75,13.31-3.17-.63-3.91-1.27-3.7-3.91a27.06,27.06,0,0,1,1.16-6.44c1.48-5,3.17-9.93,4.55-14.89a11.32,11.32,0,0,0,.84-2.43c-1.27-.74-3.17-.42-3.38-2.75a12.21,12.21,0,0,0,1.69-.42,7.22,7.22,0,0,0,5.07-4.54A98.91,98.91,0,0,1,374.45,255a41.65,41.65,0,0,1,7.08-7.28c2.53-2,5.8-.21,5.91,3.06a9.91,9.91,0,0,1-.74,3.49,32.86,32.86,0,0,1-2.75,5.91,78.81,78.81,0,0,1-17.53,21.65,15.59,15.59,0,0,0-5.07,7.4c-.53,1.48-1.16,2.95-1.69,4.43,6.55-3.48,12.15-9,14.68-10.67C375.72,282,379.41,285,377.09,287.4Zm-10.46-10.14a94.82,94.82,0,0,0,16.27-20.07c4-7.18.42-5.91-2.85-1.9C374.55,261.63,369.8,270.4,366.63,277.26Z"/><path class="cls-2" d="M92.52,280.62c.73-.31,1-.31,1.26-.53,11-8.34,22-16.58,32.75-25,2.53-1.9,4.54-4.54,6.76-7a4.81,4.81,0,0,0,1.47-4.54c-1.37-.21-2.95-.64-4.43-.74-6.44-.42-12.68.74-18.91,2.53A80.46,80.46,0,0,0,83.75,259.6,73.06,73.06,0,0,0,76,267c-1.27,1.26-2.43,2.85-1.59,4.85-3.69-.42-5.07-2.32-3.27-5.06a37.51,37.51,0,0,1,6.13-7.5,79.71,79.71,0,0,1,37.39-18.91,47.07,47.07,0,0,1,13.83-1.27c3.06.21,6,.85,8.35,3,2.64,2.32,3.38,4.75,1.58,7.71a31.41,31.41,0,0,1-5.49,6.76c-4,3.7-8.24,7.08-12.46,10.35s-8.45,6.13-12.57,9.19a12.28,12.28,0,0,0-2.43,2.32c1.79-.42,3.59-.95,5.49-1.37A31.44,31.44,0,0,1,123.15,276c6.76.64,10.45,6,8.13,12.47a42.93,42.93,0,0,1-5.49,9.82A75.92,75.92,0,0,1,86,325.72a95.34,95.34,0,0,1-14.58,3.06A11.14,11.14,0,0,1,62.1,326a4.75,4.75,0,0,1-1.27-2.75,26.64,26.64,0,0,0,5.7,1.38,26.55,26.55,0,0,0,5.81-.22c2-.31,3.91-.84,6.13-1.37-1.8-3.06-1.16-6.12-.53-9,4.12-18.9,9.29-37.49,17.32-55.24.53-1.16,1.06-2.32,1.69-3.48,1.48-2.54,1.9-2.54,4.65-.32C98.64,263.62,95.16,271.75,92.52,280.62Zm-8.14,40.67A82.86,82.86,0,0,0,121,295.72a60.82,60.82,0,0,0,5.81-9,12.29,12.29,0,0,0,1.06-4c.21-1.58-.32-2.85-2.11-3.06a45,45,0,0,0-6.45-.32,63.38,63.38,0,0,0-26.19,9.51c-.85.53-1.48,1.58-2.32,1.69-1.69.11-1.8,1.06-2.12,2.22-2.11,7.81-4.22,15.63-6.23,23.45-.42,1.79-.42,3.59-.74,5.7C82.9,321.6,83.64,321.5,84.38,321.29Z"/><path class="cls-2" d="M161.07,291.82c2.53-3,4.65.42,2.11,2.85-5.39,5.18-6.86,7.08-12.25,12.36a25.6,25.6,0,0,1-6.34,4.75c-4.22,2.22-8.24.32-8.66-4.22a28.15,28.15,0,0,1,.85-9.41c.73-3.9,2.21-7.81,3.16-11.93a22.79,22.79,0,0,1-2.53-.85c-.63-.42-.95-1.26-1.69-2.32a20.23,20.23,0,0,0,2.53-.42,8.49,8.49,0,0,0,5.39-4.86,104,104,0,0,1,14.26-24.5,73.78,73.78,0,0,1,7.6-7.61,15.06,15.06,0,0,1,2.75-1.69c3.28-1.9,6.87,1.59,6.23,4.23a21.46,21.46,0,0,1-2,5.7,66.87,66.87,0,0,1-11.73,14.89c-3.7,3.7-7.71,7.29-11.62,10.88a9.63,9.63,0,0,0-2.11,2.54c-3.17,7.6-6,15.31-7,23.44-.63,6.24,3.7,2.22,6.76-.21C153.46,300.16,155.68,298.15,161.07,291.82Zm-8.56-20.18c7.4-7.28,14.37-14.25,18.59-24.39C164.87,250.41,154.52,264.14,152.51,271.64Z"/><path class="cls-2" d="M182,301.11a9.72,9.72,0,0,0,5.39-1.48c3.7-2.21,8.77-5.17,12.46-7.39,1.59-.95,1.59-.63,3.07,1.16a19.54,19.54,0,0,1-1.59,1.48c-3.8,2.54-7.6,5.07-11.41,7.39a13.12,13.12,0,0,1-4.85,1.69c-5.07.53-8-2.74-7.19-7.71.11-.42.21-.84.43-1.79-2.12,1.69-3.7,3.06-5.39,4.33s-3.17,2.22-4.75,3.27a5.13,5.13,0,0,1-5.6-.21c-1.37-1-2.11-2.22-1.48-3.91a14.52,14.52,0,0,1,1.58-3.48A46,46,0,0,1,175,280.94a30.43,30.43,0,0,1,4-2.33c4.85-2.42,8.87-.21,13.09,2.54C187.79,287.59,182.83,293.09,182,301.11Zm4.54-20.28c-6.23-.21-16.47,8.77-19.85,17.22C174.06,292.87,180.19,287.06,186.52,280.83Z"/><path class="cls-2" d="M221.49,281.36a6.65,6.65,0,0,0,.21-1.58c-7.5,2.21-15.42,12.46-15.11,20.28.22,4.54,4.76,2.85,7.4,2.21a50.6,50.6,0,0,0,16.69-9.61c1.9-1.37.84-2.11,3.06-1.05.95.63,1.16,1.48.32,2.21a52.29,52.29,0,0,1-20.28,11.52,10.3,10.3,0,0,1-7.71-.64,6.41,6.41,0,0,1-4-5.49c-.42-7.82,4-14.89,10-19.43a13.61,13.61,0,0,1,6.23-3,7.47,7.47,0,0,1,6.23,2,2.8,2.8,0,0,1,.85,3.59,24.93,24.93,0,0,1-2.43,3.91c-1.27,1.47-2.12,1.37-4-.11C219.9,284.53,220.64,283,221.49,281.36Z"/><path class="cls-2" d="M257.29,285.16a54.56,54.56,0,0,1-10.87,8c1.05,4.12,2.11,12.36,7.18,9.29,4.75-2.63,9.08-6.65,13.09-9.92,1.27-1.17,1.8-.74,3.07.74a2.4,2.4,0,0,1-.85,1.16c-4.12,3.27-8.13,6.76-12.46,9.61-6.13,4-11.51,1.9-13.84-4.65-.42-1.05-.53-2.11-1-3.38-2.53.85-4.43,2-5.28,5-1.06,4.43-2.53,8.66-2.74,13.3-3.17-.63-3.91-1.26-3.7-3.9A26.65,26.65,0,0,1,231.1,304c1.48-5,3.17-9.92,4.54-14.89a11,11,0,0,0,.85-2.43c-1.27-.74-3.17-.42-3.38-2.74a14.49,14.49,0,0,0,1.69-.43,7.24,7.24,0,0,0,5.07-4.54,99.1,99.1,0,0,1,14.78-26.19,42.07,42.07,0,0,1,7.08-7.29c2.53-2,5.81-.21,5.91,3.06a9.9,9.9,0,0,1-.73,3.49,33.23,33.23,0,0,1-2.75,5.91,79.19,79.19,0,0,1-17.53,21.66,15.51,15.51,0,0,0-5.07,7.39c-.53,1.48-1.17,3-1.69,4.43,6.55-3.48,12.14-9,14.68-10.66C255.92,279.78,259.62,282.73,257.29,285.16ZM246.84,275A95,95,0,0,0,263.1,255c4-7.19.43-5.92-2.85-1.91C254.76,259.39,250,268.16,246.84,275Z"/><path class="cls-2" d="M250.43,329.1c-4.54-1.79-8-5-11.3-8.45-1.27-1.48-1.59-3.48,0-4.75,8.24-6.87,19.12-8.24,26.4-14.68a9.22,9.22,0,0,0,3.81-5.71c1.16-4.12,1.69-7.6,2.42-10.87.32-2.12.53-2.22,2.12-1.8,1.69.63,2.43.53,2.11,2.43a131.09,131.09,0,0,1-3.17,13.31c3.17-1.8,6.44-3.81,9.82-6.13,1.27-.84,1.48-.63,2.12-.21s.31,1.37-1.06,2.75a48.35,48.35,0,0,1-12.25,7.81c-3.06,9.61-7.5,19.33-12.15,24.19A7.57,7.57,0,0,1,250.43,329.1Zm-7-11.51c-1.27,1-1.16,2.32.1,3.38,2,1.69,4,3.38,6,5a2.78,2.78,0,0,0,3.81,0,6.51,6.51,0,0,0,2.11-2c4.12-5.07,6.76-11.09,9.08-17.33C257.29,311,248.53,313.68,243.46,317.59Zm30.21-43.31a21.9,21.9,0,0,1,.84-2.43c.53-1.37,1.59-1.26,2.64-1s.42,5.18-.1,6.34c-.74,1.8.21,2.43-2.33,1.16C273.14,277.66,273.14,276,273.67,274.28Z"/><path class="cls-2" d="M304,301.11a9.72,9.72,0,0,0,5.39-1.48c3.69-2.21,8.76-5.17,12.46-7.39,1.58-.95,1.58-.63,3.06,1.16a19.46,19.46,0,0,1-1.58,1.48c-3.8,2.54-7.61,5.07-11.41,7.39A13.23,13.23,0,0,1,307,304c-5.07.53-8-2.74-7.18-7.71.11-.42.21-.84.42-1.79-2.11,1.69-3.69,3.06-5.38,4.33s-3.17,2.22-4.76,3.27a5.13,5.13,0,0,1-5.6-.21c-1.37-1-2.11-2.22-1.47-3.91a14.52,14.52,0,0,1,1.58-3.48A45.76,45.76,0,0,1,297,280.94a31,31,0,0,1,4-2.33c4.86-2.42,8.87-.21,13.1,2.54C309.79,287.59,304.82,293.09,304,301.11Zm4.54-20.28c-6.23-.21-16.48,8.77-19.86,17.22C296.06,292.87,302.18,287.06,308.52,280.83Z"/><path class="cls-2" d="M343.48,281.36a6.13,6.13,0,0,0,.22-1.58c-7.5,2.21-15.42,12.46-15.11,20.28.21,4.54,4.75,2.85,7.4,2.21a50.45,50.45,0,0,0,16.68-9.61c1.9-1.37.85-2.11,3.07-1.05.95.63,1.16,1.48.31,2.21a52.21,52.21,0,0,1-20.28,11.52,10.3,10.3,0,0,1-7.71-.64,6.4,6.4,0,0,1-4-5.49c-.42-7.82,4-14.89,10-19.43a13.64,13.64,0,0,1,6.24-3,7.48,7.48,0,0,1,6.23,2,2.81,2.81,0,0,1,.84,3.59,24.93,24.93,0,0,1-2.43,3.91c-1.26,1.47-2.11,1.37-4-.11C341.9,284.53,342.64,283,343.48,281.36Z"/><path class="cls-2" d="M379.29,285.16a54.35,54.35,0,0,1-10.88,8c1.06,4.12,2.11,12.36,7.18,9.29,4.76-2.63,9.09-6.65,13.1-9.92,1.27-1.17,1.8-.74,3.06.74-.21.42-.42.95-.84,1.16-4.12,3.27-8.13,6.76-12.46,9.61-6.13,4-11.52,1.9-13.84-4.65-.42-1.05-.53-2.11-.95-3.38-2.54.85-4.44,2-5.28,5-1.06,4.43-2.54,8.66-2.75,13.3-3.17-.63-3.91-1.26-3.7-3.9A26.66,26.66,0,0,1,353.1,304c1.48-5,3.17-9.92,4.54-14.89a11,11,0,0,0,.84-2.43c-1.26-.74-3.17-.42-3.38-2.74a14,14,0,0,0,1.69-.43,7.2,7.2,0,0,0,5.07-4.54,98.86,98.86,0,0,1,14.79-26.19,42.07,42.07,0,0,1,7.08-7.29c2.53-2,5.81-.21,5.91,3.06a9.91,9.91,0,0,1-.74,3.49,33.18,33.18,0,0,1-2.74,5.91,79.22,79.22,0,0,1-17.54,21.66,15.51,15.51,0,0,0-5.07,7.39c-.52,1.48-1.16,3-1.69,4.43,6.55-3.48,12.15-9,14.68-10.66C377.92,279.78,381.61,282.73,379.29,285.16ZM368.83,275A94.71,94.71,0,0,0,385.1,255c4-7.19.42-5.92-2.85-1.91C376.76,259.39,372,268.16,368.83,275Z"/><path class="cls-2" d="M16.42,223.69l132.65-2.94a27.82,27.82,0,0,0-.88-3.16q-17.13-42.06-34.3-84.09c-4.42-10.81.18-21.21,11.58-25.88Q154.38,95.77,183.33,84c11.79-4.8,23.58-9.63,35.39-14.4,11.55-4.68,18-3.1,26.3,6.11a4.38,4.38,0,0,0,3.43,1c4.13-.71,8.21-1.7,12.3-2.62,11.29-2.54,19.32,1.6,23.95,12.07a4.7,4.7,0,0,0,3.55,2.19c5.55.11,11.1-.23,16.65-.29,9.41-.1,16.54,3.41,20.29,12.61.47,1.16,2.3,2.19,3.67,2.47,5.28,1.09,10.64,1.78,15.95,2.74,11.9,2.14,18.26,10.78,16.35,22.62-4.62,28.56-9.38,57.1-14.08,85.65-.36,2.19-.63,4.39-1,6.93l111.32,2.7Q236.92,231.93,16.42,223.69ZM186.11,99.77c0,4-.1,7.81,0,11.6.3,8.85.69,17.69,1.07,26.53q1.74,39.79,3.56,79.58c.05,1.05,1.06,2.05,1.61,3.07.51-1,1.46-2.09,1.46-3.13,0-9-.14-18-.31-27q-.74-40-1.52-80.1c-.1-5.71,2-9.88,6.54-10.39,8.39-1,16.88-1,25.58-1.48-6,41.2-11.82,81.46-17.67,121.76,4.7,1.18,4.07-2.25,4.4-4.19q9-53.88,17.79-107.8c1.41-8.58,5.45-11.4,14.11-10q23.5,3.9,47,7.74c17.89,3,35.8,5.84,53.67,8.93,6.85,1.18,9.79,5.44,8.7,12.19-2.59,16.13-5.3,32.24-7.94,48.36-2.47,15.05-4.91,30.12-7.4,45.41h5.46c5.17-31.19,10.38-62.08,15.36-93,1.61-10.05-3.52-16.7-13.74-18.56-6-1.09-12.15-1.85-18.18-3a5.26,5.26,0,0,1-3.46-2.62c-3.56-9.09-7.33-11.8-17.25-11.84-7.47,0-14.94,0-22,0-1.67-3.48-2.66-7.14-4.87-9.76-4.24-5-10-6-16.4-4.52-6.06,1.43-12.18,2.62-18.11,3.88-4.68-9.77-11.93-13.09-21.24-9.35q-48.57,19.53-97,39.52c-8.5,3.51-11.66,12-8.2,20.54q17.43,42.9,34.89,85.79c1.21,3,2.87,3.86,6.05,2.58-.53-1.46-1-2.87-1.55-4.24q-17.53-43.09-35.07-86.19c-2.35-5.77-.69-11,4.81-13.65,6.6-3.14,13.46-5.72,20.62-8.73,0,3-.52,5.65.08,8q13.2,51.38,26.72,102.66c.25,1,1.18,1.73,1.79,2.59a3.62,3.62,0,0,0,.58-3q-10.69-49-21.44-97.94c-2.06-9.41.31-13.38,9.71-15.52C171.87,102.74,179.36,101.22,186.11,99.77Zm78,120.51h17.25c-1-3.13-1.88-6-3-9.65,1.29.49,1.79.65,2.27.88C291.41,216.77,300.86,211,300,199c-.33-4.52-2.46-9.23-4.83-13.22-3.88-6.53-8.62-12.54-12.72-18.38-5.55,4-11.69,7.91-17.32,12.51a44,44,0,0,0-9.54,10.44c-3,4.79-2.31,10.25.94,14.86,3.07,4.36,7.7,5.38,12.82,4.54.69-.11,1.41-.07,3.4-.16Zm-91.29-92c-2.94-4.89-5.63-9.48-8.48-14a3.38,3.38,0,0,0-2.43-1.32c-.52,0-1.54,1.1-1.56,1.72-.12,5.59-.07,11.19-.07,17.11l4.51-1.36c-1-1.62-1.79-2.9-2.94-4.74l4.58-1.12.44,5.41Zm60.84-5.69v-5.37l4.27.59c-.86,2-1.41,3.21-2.19,5l6.33.64c-.89-5.65-1.61-10.75-2.57-15.8-.18-.92-1.33-1.66-2-2.48-.79.77-1.91,1.39-2.33,2.32-2,4.44-3.79,9-5.63,13.47-.08.21.15.54.31,1ZM130.81,136.78l5.05-1.75.9,5.29,5.64-2.82c-3.7-4.33-7-8.32-10.48-12.15a4.39,4.39,0,0,0-2.89-1c-.31,0-1,1.39-.94,2C129,131.79,130,137.14,131,143l4-2.26ZM208,123.91c-1.89-5.28-3.58-10.17-5.44-15-.31-.81-1.3-1.82-2-1.86s-1.75,1.07-1.93,1.85c-1.17,5.14-2.15,10.34-3.28,16l4.29-.38-1.56-5,4.76-.31c-.42,2-.7,3.39-1.1,5.37ZM174.8,140.42c-2.6-3-4.93-5.83-7.47-8.45-.27-.29-2.37.38-2.56.95a38,38,0,0,0-2.21,9.37c0,.76,3,1.71,4.68,2.57,3.21,1.7,3.1,1.63,3.88.43C172.12,143.75,173.33,142.34,174.8,140.42Zm-31.86,15.11a100.5,100.5,0,0,0,1-10.16A4.64,4.64,0,0,0,142,141.8c-.78-.41-2.38.78-3.63,1.21a12.88,12.88,0,0,1-2.31.66c-3.24.49-4.31,2.89-1.94,5.21S139.45,152.94,142.94,155.53Zm57.79-28.6c-6,8.48-5.91,9.58,1.19,14.68C207.92,132.58,207.88,134.7,200.73,126.93ZM233,139.58c1.5-1.6,4.52-3.37,4.8-5.49.36-2.73-1.49-5.75-2.59-9.3-2.45,2.86-4.58,4.82-6,7.21-.58,1,.19,3,.78,4.35C230.48,137.38,231.62,138.12,233,139.58Z"/><path class="cls-2" d="M17.37,340.89q220-7.2,439.88,0Q237.29,348.1,17.37,340.89Z"/><path class="cls-2" d="M418.55,309.35c2-5.31,11.59-3.3,9.11-11a32.76,32.76,0,0,1-5.26,2.36c-4.75,1.21-9.32.8-12.88-3-3.92-4.18-4.19-9.29-2.22-14.25a29.34,29.34,0,0,1,5.51-8.05c6-6.82,12.19-13.45,17.82-19.63,5.69,6.34,12.18,13.43,18.49,20.7a28.6,28.6,0,0,1,4.6,7.11,12.27,12.27,0,0,1-3.11,14.72c-4.09,3.65-9.25,4.1-14.6,1.27-.77-.41-1.51-.88-2.33-1.36-.67,4.68.64,6.33,5.27,7.61,1.15.32,2.06,1.48,3.08,2.25-1.13.43-2.25,1.21-3.39,1.23C432.24,309.41,425.83,309.35,418.55,309.35Zm12.08-46.41-1.38.85a16.42,16.42,0,0,0,1.88,3.46c3.37,3.61,6.87,7.1,10.34,10.62,3.93,4,7.85,8,7.93,14.19,2-4.09.72-7.85-1.78-10.78C442.21,275,436.32,269,430.63,262.94Z"/><path class="cls-2" d="M24.39,251.92C30,258,36,264.78,42.23,271.39c3.37,3.59,6.14,7.35,6.46,12.48.63,10.28-8.39,16.56-17.79,12.34-1.2-.54-2.36-1.16-3.79-1.87-.63,4.59,1.73,6.49,5.47,7.54a17.21,17.21,0,0,1,3.5,2l-.62,1.58H12.24c2.14-5.27,11.66-3.13,9.22-11-.9.5-1.75,1-2.62,1.45-5,2.58-10.34,2.09-14.3-1.29-4.18-3.56-5.82-9-3.44-14.24a41.8,41.8,0,0,1,6.49-9.58C13.19,264.19,19.07,257.85,24.39,251.92Zm1.22,7.9-1.31-.59c-5.35,5.63-10.83,11.14-16,16.94-3,3.36-4.83,7.32-2.71,12,0-5.56,3.28-9.4,6.85-13.06,3.76-3.85,7.6-7.62,11.27-11.56C24.63,262.55,25,261.07,25.61,259.82Z"/><path class="cls-2" d="M352.22,203.67l70.26-12.41c.15.78.29,1.56.43,2.33L352.65,206C352.51,205.25,352.36,204.46,352.22,203.67Z"/><path class="cls-2" d="M69.23,162.68c4.31-2,59.57,18.54,61.55,22.45Z"/><path class="cls-2" d="M135.06,206.65l-33.71-5.94.35-2.11c11.36,1.4,22.56,3.77,33.81,5.78Z"/><path class="cls-2" d="M268.37,67.92l5.94-33.67,2.11.36c-1.48,11.33-3.66,22.55-5.87,33.76Z"/><path class="cls-2" d="M186.63,75.67q-5.87-16.08-11.72-32.15l2.29-.83Q183,58.83,188.88,75Z"/><path class="cls-2" d="M390.69,168.93l32.06-11.68.72,2c-10.48,4.52-21.33,8.06-32.05,11.95Z"/><path class="cls-2" d="M85.59,197.94,51.9,192l.41-2.29,33.7,6Z"/><path class="cls-2" d="M305.78,52.28c-3.84,11-7.75,22-12,32.86l-2.15-.82,12-32.79Z"/><path class="cls-2" d="M366.08,76.7c-1.36,4.93-19,24.89-22.84,25.06l21.85-25.93Z"/><path class="cls-2" d="M210.94,43.57a146.22,146.22,0,0,1,4.22,23.73l-2,.31L209,43.88Z"/><path class="cls-2" d="M383.23,107.24l-17.6,14.92c-.25-3.4,11.84-14.49,16.73-15.92Z"/><path class="cls-2" d="M95,99.64c5.86,4.66,11.93,9.09,17,14.63l-1.25,1.41L93.54,101.17Z"/><path class="cls-2" d="M355.79,184.24c1.59-3.82,16.25-9.56,20.67-7.71Z"/><path class="cls-2" d="M138.5,99c-4.51-.71-13.75-11.3-13.7-15.94Z"/><path class="cls-2" d="M360.54,157.29c.84-3.81,11.06-10.29,15.8-9.28Z"/><path class="cls-2" d="M36.36,189.2l-17.31-3L19.4,184l17.33,2.9Z"/><path class="cls-2" d="M437.7,151.76l16.46-5.82c.25.72.51,1.44.77,2.16L438.5,154Z"/><path class="cls-2" d="M277.12,18.5q1.49-8.6,3-17.2l2.34.44-3,17.24Z"/><path class="cls-2" d="M169.48,28.48l-6-16.43,1.65-.62a61.78,61.78,0,0,1,6.22,16.45Z"/><path class="cls-2" d="M69.53,78.07,82.88,89.21,81.36,91,68,79.84Z"/><path class="cls-2" d="M375.26,63.69l11.3-13.41,1.76,1.49L377,65.15Z"/><path class="cls-2" d="M117.44,153.84l-9.77-5.76,1.26-2,9.6,6.07Z"/><path d="M186.11,99.77c-6.75,1.45-14.24,3-21.68,4.66-9.4,2.14-11.77,6.11-9.71,15.52q10.75,49,21.44,97.94a3.62,3.62,0,0,1-.58,3c-.61-.86-1.54-1.63-1.79-2.59Q160.33,167,147.07,115.68c-.6-2.34-.08-5-.08-8-7.16,3-14,5.59-20.62,8.73-5.5,2.63-7.16,7.88-4.81,13.65q17.5,43.11,35.07,86.19c.56,1.37,1,2.78,1.55,4.24-3.18,1.28-4.84.4-6.05-2.58Q134.76,175,117.24,132.13c-3.46-8.52-.3-17,8.2-20.54q48.41-20,97-39.52c9.31-3.74,16.56-.42,21.24,9.35,5.93-1.26,12.05-2.45,18.11-3.88,6.36-1.5,12.16-.51,16.4,4.52,2.21,2.62,3.2,6.28,4.87,9.76,7,0,14.5,0,22,0,9.92,0,13.69,2.75,17.25,11.84a5.26,5.26,0,0,0,3.46,2.62c6,1.18,12.14,1.94,18.18,3,10.22,1.86,15.35,8.51,13.74,18.56-5,30.93-10.19,61.82-15.36,93h-5.46c2.49-15.29,4.93-30.36,7.4-45.41,2.64-16.12,5.35-32.23,7.94-48.36,1.09-6.75-1.85-11-8.7-12.19-17.87-3.09-35.78-6-53.67-8.93q-23.52-3.88-47-7.74c-8.66-1.44-12.7,1.38-14.11,10q-8.87,53.91-17.79,107.8c-.33,1.94.3,5.37-4.4,4.19,5.85-40.3,11.69-80.56,17.67-121.76-8.7.45-17.19.52-25.58,1.48-4.51.51-6.64,4.68-6.54,10.39q.74,40,1.52,80.1c.17,9,.31,18,.31,27,0,1-1,2.09-1.46,3.13-.55-1-1.56-2-1.61-3.07q-1.87-39.78-3.56-79.58c-.38-8.84-.77-17.68-1.07-26.53C186,107.58,186.11,103.78,186.11,99.77ZM276,92c-.17-7.1-5.06-10.69-12.38-9.18-10.11,2.1-20.19,4.41-30.28,6.62L212.43,94l.12.82ZM237.47,80.24c-3.14-4.59-7-6-12.26-4.17-5.5,1.94-10.87,4.26-16.28,6.46q-15.31,6.24-30.61,12.53l.23.69Zm79.14,25.33c-1.42-6-4.78-8.48-11.29-8.39-11.24.14-22.47.38-33.71.6a17.23,17.23,0,0,0-2.12.32l.08.71Z"/><path d="M264.11,220.28l8.64-10.73c-2,.09-2.71,0-3.4.16-5.12.84-9.75-.18-12.82-4.54-3.25-4.61-3.93-10.07-.94-14.86a44,44,0,0,1,9.54-10.44c5.63-4.6,11.77-8.55,17.32-12.51,4.1,5.84,8.84,11.85,12.72,18.38,2.37,4,4.5,8.7,4.83,13.22.86,12-8.59,17.81-19.38,12.55-.48-.23-1-.39-2.27-.88,1.13,3.61,2,6.52,3,9.65Z"/><path d="M172.82,128.29,166.87,130l-.44-5.41-4.58,1.12c1.15,1.84,1.94,3.12,2.94,4.74l-4.51,1.36c0-5.92-.05-11.52.07-17.11,0-.62,1-1.74,1.56-1.72a3.38,3.38,0,0,1,2.43,1.32C167.19,118.81,169.88,123.4,172.82,128.29Z"/><path d="M233.66,122.6l-3.84-.62c-.16-.5-.39-.83-.31-1,1.84-4.51,3.65-9,5.63-13.47.42-.93,1.54-1.55,2.33-2.32.7.82,1.85,1.56,2,2.48,1,5.05,1.68,10.15,2.57,15.8l-6.33-.64c.78-1.76,1.33-3,2.19-5l-4.27-.59Z"/><path d="M130.81,136.78l4.15,3.93L131,143c-1-5.83-2.06-11.18-2.92-16.55-.11-.65.63-2.06.94-2a4.39,4.39,0,0,1,2.89,1c3.47,3.83,6.78,7.82,10.48,12.15l-5.64,2.82-.9-5.29Z"/><path d="M208,123.91l-6.28.59c.4-2,.68-3.35,1.1-5.37l-4.76.31,1.56,5-4.29.38c1.13-5.62,2.11-10.82,3.28-16,.18-.78,1.3-1.89,1.93-1.85s1.71,1,2,1.86C204.37,113.74,206.06,118.63,208,123.91Z"/><path d="M174.8,140.42c-1.47,1.92-2.68,3.33-3.68,4.87-.78,1.2-.67,1.27-3.88-.43-1.64-.86-4.72-1.81-4.68-2.57a38,38,0,0,1,2.21-9.37c.19-.57,2.29-1.24,2.56-.95C169.87,134.59,172.2,137.42,174.8,140.42Z"/><path d="M142.94,155.53c-3.49-2.59-6.42-4.33-8.79-6.65s-1.3-4.72,1.94-5.21a12.88,12.88,0,0,0,2.31-.66c1.25-.43,2.85-1.62,3.63-1.21a4.64,4.64,0,0,1,1.93,3.57A100.5,100.5,0,0,1,142.94,155.53Z"/><path d="M200.73,126.93c7.15,7.77,7.19,5.65,1.19,14.68C194.82,136.51,194.71,135.41,200.73,126.93Z"/><path d="M233,139.58c-1.39-1.46-2.53-2.2-3-3.23-.59-1.36-1.36-3.36-.78-4.35,1.39-2.39,3.52-4.35,6-7.21,1.1,3.55,2.95,6.57,2.59,9.3C237.53,136.21,234.51,138,233,139.58Z"/><path class="cls-2" d="M276,92l-63.43,2.83-.12-.82,20.89-4.57c10.09-2.21,20.17-4.52,30.28-6.62C270.92,81.27,275.81,84.86,276,92Z"/><path class="cls-2" d="M237.47,80.24,178.55,95.75l-.23-.69q15.3-6.27,30.61-12.53c5.41-2.2,10.78-4.52,16.28-6.46C230.44,74.24,234.33,75.65,237.47,80.24Z"/><path class="cls-2" d="M316.61,105.57l-47-6.76-.08-.71a17.23,17.23,0,0,1,2.12-.32c11.24-.22,22.47-.46,33.71-.6C311.83,97.09,315.19,99.53,316.61,105.57Z"/></svg>