<?xml version="1.0" standalone="no"?>
<!DOCTYPE svg PUBLIC "-//W3C//DTD SVG 20010904//EN"
 "http://www.w3.org/TR/2001/REC-SVG-20010904/DTD/svg10.dtd">
<svg version="1.0" xmlns="http://www.w3.org/2000/svg"
 width="200.000000pt" height="197.000000pt" viewBox="0 0 200.000000 197.000000"
 preserveAspectRatio="xMidYMid meet">
<metadata>
Created by potrace 1.16, written by Peter Selinger 2001-2019
</metadata>
<g transform="translate(0.000000,197.000000) scale(0.100000,-0.100000)"
fill="#000000" stroke="none">
<path d="M10 1962 c0 -4 9 -15 20 -25 13 -10 20 -29 20 -50 0 -21 -8 -41 -20
-52 -14 -13 -20 -31 -20 -64 0 -38 4 -48 22 -56 20 -8 23 -18 23 -60 0 -42 -3
-52 -22 -60 -19 -8 -23 -18 -23 -53 0 -41 1 -42 27 -36 90 21 127 61 127 141
1 44 -3 56 -28 82 -16 16 -43 33 -60 37 l-31 7 26 11 c66 28 96 83 79 146
l-11 40 -64 0 c-36 0 -65 -3 -65 -8z"/>
<path d="M301 1833 c-73 -111 -91 -145 -91 -175 l0 -37 118 -3 117 -3 3 -52 3
-53 45 0 44 0 0 55 0 55 35 0 c33 0 35 2 35 35 0 33 -2 35 -35 35 l-35 0 0
140 0 140 -75 0 -74 0 -90 -137z m149 -23 l0 -120 -80 0 -80 0 45 68 c24 37
58 91 75 120 17 28 33 52 36 52 2 0 4 -54 4 -120z"/>
<path d="M1530 1768 c-19 -13 -40 -38 -47 -55 l-13 -33 36 0 c26 0 43 7 60 25
28 30 67 32 94 5 43 -43 11 -100 -55 -100 -29 0 -31 -2 -27 -35 4 -32 7 -35
36 -35 66 0 102 -64 58 -103 -37 -34 -122 -12 -122 31 0 13 -18 14 -63 3 l-27
-6 17 -34 c25 -48 63 -73 121 -79 97 -9 160 33 169 112 5 40 2 48 -25 76 -17
16 -41 30 -54 30 -21 1 -21 2 7 17 43 22 65 53 65 93 0 69 -53 110 -143 110
-40 0 -63 -6 -87 -22z"/>
<path d="M1893 1753 c-43 -29 -53 -41 -53 -64 0 -16 3 -29 6 -29 3 0 25 13 48
30 24 16 46 26 50 23 3 -4 6 -71 6 -150 l0 -143 -55 0 c-54 0 -55 0 -55 -30
l0 -30 80 0 80 0 0 215 0 215 -27 -1 c-16 -1 -52 -17 -80 -36z"/>
<path d="M1030 1564 c-143 -28 -233 -104 -265 -223 l-13 -51 91 0 92 1 20 41
c26 53 61 79 118 85 59 7 88 -1 126 -33 63 -53 50 -139 -31 -207 -143 -119
-171 -152 -183 -219 l-7 -38 83 0 84 1 22 48 c17 35 40 61 85 94 134 98 167
148 168 248 0 110 -71 201 -184 234 -55 16 -166 26 -206 19z"/>
<path d="M153 1274 c-36 -18 -73 -70 -73 -103 0 -18 6 -21 43 -21 36 0 44 4
59 30 21 37 60 48 93 26 51 -34 27 -96 -68 -174 -94 -78 -136 -136 -137 -189
l0 -33 165 0 165 0 0 40 0 40 -106 0 c-80 0 -105 3 -102 13 3 6 40 42 84 79
81 68 124 130 124 177 0 40 -33 92 -71 113 -42 23 -132 24 -176 2z"/>
<path d="M535 1270 c-40 -20 -75 -63 -75 -94 0 -12 10 -16 44 -16 36 0 47 5
60 25 37 56 116 36 116 -30 0 -41 -29 -65 -77 -65 -32 0 -33 -1 -33 -40 0 -40
0 -40 38 -40 53 0 82 -23 82 -65 0 -42 -22 -65 -61 -65 -39 0 -68 16 -78 43
-8 20 -15 22 -56 19 -45 -4 -46 -5 -40 -31 11 -44 35 -72 78 -92 85 -38 209
-13 241 50 36 69 5 159 -61 176 l-27 6 32 16 c18 9 40 30 49 46 19 37 12 100
-14 129 -44 50 -148 63 -218 28z"/>
<path d="M1574 1190 c-55 -22 -70 -95 -30 -135 l25 -25 -30 -29 c-39 -39 -39
-80 0 -123 28 -31 33 -33 100 -33 62 0 74 3 96 26 14 14 28 41 32 62 5 31 1
40 -25 67 l-31 30 25 25 c41 41 29 102 -26 130 -31 16 -102 19 -136 5z"/>
<path d="M1868 1169 c-35 -23 -48 -38 -48 -55 0 -29 1 -29 42 -4 18 11 37 20
41 20 4 0 6 -53 5 -117 l-3 -118 -42 -3 c-38 -3 -43 -6 -43 -28 0 -24 1 -24
90 -24 89 0 90 0 90 25 0 14 -4 25 -10 25 -6 0 -11 62 -12 153 l-3 152 -30 3
c-20 1 -46 -8 -77 -29z"/>
<path d="M1300 821 c-59 -16 -82 -164 -32 -213 30 -31 88 -30 113 1 49 60 -7
156 -70 122 -11 -6 -22 -11 -25 -11 -13 0 -5 29 13 51 17 21 22 22 40 12 27
-17 51 -16 51 1 0 28 -48 48 -90 37z"/>
<path d="M970 735 l0 -85 95 0 95 0 0 85 0 85 -95 0 -95 0 0 -85z"/>
<path d="M1237 478 c-47 -13 -89 -54 -104 -102 l-11 -36 54 0 c39 0 54 4 54
13 0 43 92 64 123 29 40 -44 13 -96 -100 -191 -73 -63 -133 -140 -133 -173 0
-17 12 -18 180 -18 173 0 180 1 180 20 0 19 -7 20 -121 20 l-121 0 14 22 c8
13 50 52 93 89 42 36 88 83 101 105 45 73 24 173 -44 208 -39 20 -119 27 -165
14z"/>
<path d="M1655 475 c-31 -8 -59 -24 -77 -44 -51 -57 -31 -166 36 -190 19 -8
19 -9 -11 -25 -47 -24 -63 -53 -63 -116 0 -97 5 -100 180 -100 144 0 150 1
164 23 42 65 24 151 -40 189 -33 19 -35 22 -17 29 61 22 85 128 42 183 -42 54
-129 74 -214 51z m119 -87 c9 -12 16 -34 16 -48 0 -44 -26 -70 -70 -70 -44 0
-70 26 -70 70 0 44 26 70 70 70 29 0 43 -6 54 -22z m-23 -198 c23 0 49 -42 49
-79 0 -57 -27 -86 -80 -86 -65 0 -94 48 -73 124 6 24 58 54 81 46 8 -3 18 -5
23 -5z"/>
<path d="M603 400 c-20 -12 -33 -28 -33 -40 0 -20 1 -20 30 -5 l30 16 0 -95 0
-95 -32 -3 c-22 -2 -34 -9 -36 -21 -3 -15 7 -17 97 -17 94 0 101 1 101 20 0
16 -7 20 -35 20 l-35 0 0 120 0 120 -27 0 c-16 0 -43 -9 -60 -20z"/>
<path d="M840 329 c-79 -120 -79 -129 5 -129 l65 0 0 -30 c0 -27 3 -30 30 -30
27 0 30 3 30 30 0 20 5 30 15 30 8 0 15 9 15 20 0 11 -7 20 -15 20 -12 0 -15
17 -15 90 l0 90 -35 0 c-33 0 -39 -5 -95 -91z"/>
</g>
</svg>
