<?xml version="1.0" encoding="utf-8"?>
<!-- Generator: Adobe Illustrator 26.2.1, SVG Export Plug-In . SVG Version: 6.00 Build 0)  -->
<svg version="1.1" id="Capa_1" xmlns="http://www.w3.org/2000/svg" xmlns:xlink="http://www.w3.org/1999/xlink" x="0px" y="0px"
	 viewBox="0 0 437.5 477.3" style="enable-background:new 0 0 437.5 477.3;" xml:space="preserve">
<style type="text/css">
	.st0{fill:#FFFFFF;}
	.st1{fill:#FFFFFF;stroke:#FFFFFF;stroke-width:1.23;stroke-miterlimit:10;}
	.st2{fill:#FFFFFF;stroke:#FFFFFF;stroke-width:2.13;stroke-miterlimit:10;}
</style>
<polygon points="0,198.9 83.2,286.1 18.3,311.8 116.8,329 21.5,410.3 109.7,381.9 144,477.3 195,396.1 237.3,476.1 246,359.5 
	314.4,415.7 293.6,354.9 402,397.5 334.9,322.3 437.5,290.7 362.3,260.9 386.8,167.9 283.8,218 294.1,165.3 243.7,213.9 
	197.6,115.7 174.4,214.4 120.6,183.6 143.5,215.2 "/>
<path d="M222.7,288.5l-8.2,3.9h0.1l-6-15.9l-77,29l-3-7.9l23.1-8.7l-2.9-7.8l23-8.7l-0.2-0.1l3,8.1l31-11.7l3.4,7.5l8.2-2.4
	L222.7,288.5z"/>
<path d="M162.5,364.8c1,2.6,2,5.2,3,7.7l-54.7,20.6l-2.9-7.8l-0.1,0.1l54.8-20.6L162.5,364.8z"/>
<path d="M81.8,386.3l-22.9,8.6l-29.2-77.8l22.9-8.6l-0.1-0.1l3,8l-15.1,5.7l23.4,62.2l15.1-5.7L81.8,386.3L81.8,386.3z"/>
<path d="M116.8,266.7l2.9,7.8l15.5-5.8l-0.1-0.1l2.9,7.7l-46.3,17.4l-2.8-7.5l22.9-8.6l-2.6-8l7.7-2.9L116.8,266.7z"/>
<path d="M95.7,257.1l-2.8-7.5l22.8-8.6l8.6,22.8l-7.5,2.8l0.1,0.1l-5.8-15.5l-15.5,5.8L95.7,257.1z"/>
<path d="M155.5,252.2l-2.8-7.4l30.8-11.6l2.8,7.4l0.1-0.1l-30.9,11.6L155.5,252.2z"/>
<path d="M192,256l3.3,7.5l-23.5,8.9l0.2,0.1l-2.9-7.7l23.1-8.7L192,256z"/>
<path d="M107.9,385.3L84.8,394c-1-2.7-2-5.2-2.9-7.7v0.1l23.5-8.8c1,2.9,1.8,5.4,2.6,7.9L107.9,385.3z"/>
<path d="M135.2,268.7l-2.9-7.7l23.1-8.7h-0.1l2.9,7.7l-23.1,8.7L135.2,268.7z"/>
<path d="M77.6,281.5l-2.4-7.9l15.7-5.9h-0.1l2.4,7.9l-15.7,5.9L77.6,281.5z"/>
<path d="M186.2,240.7l7.8-2.9l5.8,15.3l-7.9,3l0.2,0.1C190.2,250.9,188.2,245.8,186.2,240.7L186.2,240.7z"/>
<path d="M52.6,308.6l-2.9-7.7l15.4-5.8L65,295l2.9,7.7l-15.4,5.8L52.6,308.6z"/>
<path d="M65.1,295.1l-2.5-7.9l15.1-5.7h-0.1l3.2,7.6L65,295L65.1,295.1z"/>
<path d="M90.9,267.7l-3.3-7.5l8.1-3.1l-0.1-0.1l2.6,7.8l-7.4,2.8L90.9,267.7z"/>
<path d="M214.5,292.4l3.3,7.4l-46.5,17.5l5.9,15.5l-7.9,3l0.1,0.1l-5.9-15.7l-23.1,8.7l-2.8-7.5c0.9-0.4,1.7-0.8,2.4-1.1
	c24.2-9.1,48.3-18.2,72.5-27.3c0.7-0.2,1.4-0.4,2.2-0.5L214.5,292.4z"/>
<path d="M169.2,335.8l5.8,15.4l-7.7,2.9l0.1,0.1l-3-7.9l-23.1,8.7l-2.8-7.5L169.2,335.8L169.2,335.8z"/>
<path d="M167.3,354.1l2.9,7.7l-7.7,2.9l0.1,0.1l-2.9-7.7l7.7-2.9L167.3,354.1z"/>
<path class="st0" d="M167.4,354.2l-7.7,2.9l2.9,7.7l-54.8,20.6c-0.8-2.5-1.6-4.9-2.6-7.9l-23.5,8.8l-2.9-7.7l-15.1,5.7l-23.4-62.2
	l15.1-5.7l-3-8l15.4-5.8L65,295l15.8-5.9l-3.2-7.6l15.7-5.9l-2.4-7.9l7.4-2.8l-2.6-7.8l15.5-5.8l5.8,15.5l-7.7,2.9l2.6,8l-22.9,8.6
	l2.8,7.5l46.3-17.4l-2.9-7.7l23.1-8.7l-2.9-7.7l30.9-11.6c2,5.2,3.9,10.3,5.9,15.5l-23.1,8.7l2.9,7.7l-23,8.7l2.9,7.8l-23.1,8.7
	l3,7.9l77-29l6,15.9c-0.7,0.1-1.5,0.3-2.2,0.5c-24.2,9.1-48.4,18.2-72.6,27.3c-0.8,0.3-1.5,0.7-2.4,1.1l2.8,7.5l23.1-8.7l5.9,15.7
	l-30.9,11.6l2.8,7.5l23.1-8.7L167.4,354.2z"/>
<path d="M299.7,231.5c-1.1,1.9-2.3,3.7-3.2,5.7c-2.5,5.5-5,11-7.6,16.9l7.3,3.7l-0.1,0.1l6.7-15.1l15,6.7c-0.8,2.7-2.6,5.5-1.9,7.2
	c0.7,1.7,4,2.5,6.3,3.8c-1,2.5-1.8,4.9-2.9,7.7l15.3,6.8l-0.1,0l2.9-8l-14.8-6.6l2.9-7.7l-7.1-3.6l3.1-7.9L299.7,231.5z"/>
<path d="M324.3,378.5l22.4,10l33.5-75.1l-22.4-10l0.1-0.1l-3.4,7.6l14.7,6.6l-26.9,60.4l-14.7-6.6l-3.3,7.4L324.3,378.5z"/>
<path d="M296.2,257.8l-3.3,7.4l-22.5-10.1l-3.5,7.8l-0.1-0.2l52.8,23.5l3.4-7.7l-22.3-10c1-2.8,2-5.2,2.9-7.8l-7.6-3L296.2,257.8z"
	/>
<path d="M245.1,352.2l-3.4,7.6l52.9,23.6c1.3-2.6,2.5-5,3.7-7.4v0.1L245.1,352.2L245.1,352.2z"/>
<path d="M266.9,262.9l-7.5-3.4l-10.1,22.6l-0.1-0.1l30,13.4l3.4-7.6l-22.5-10l6.7-15L266.9,262.9z"/>
<path d="M242.6,297l-10.1,22.6l7.5,3.4L240,323l6.8-15.2l22.5,10l3.3-7.4l-30.1-13.4L242.6,297z"/>
<path d="M240.1,322.9l-6.7,15l7.5,3.4l-0.1,0.1l3.3-7.5l22.5,10l3.4-7.6L240.1,322.9L240.1,322.9z"/>
<path d="M298.4,376l22.6,10.1l3.4-7.5v0.1l-22.6-10.1l-3.4,7.5L298.4,376z"/>
<path d="M346.1,289.1l3.4-7.5l-15-6.7l0.1,0l-3.7,7.4l15.4,6.9L346.1,289.1z"/>
<path d="M357.8,303.4l3.4-7.5l-15-6.7l0.1-0.1l-3.4,7.5l15.1,6.7L357.8,303.4z"/>
<path d="M249.3,282.1l-7.4-3.3l-6.7,15l7.4,3.3h-0.1l6.8-15.1L249.3,282.1z"/>
<path d="M240.9,341.4l-3.4,7.5l7.5,3.4l-0.1,0.1l3.4-7.5L240.9,341.4L240.9,341.4z"/>
<path class="st0" d="M240.8,341.4l7.5,3.4l-3.3,7.5l53.5,23.8l3.4-7.5l22.6,10.1l3.3-7.4l14.7,6.6l26.9-60.4l-14.7-6.6l3.4-7.6
	l-15.1-6.7l3.4-7.5l-15.4-6.9l3.7-7.4l-15.3-6.8c1-2.8,1.9-5.2,2.9-7.7c-2.3-1.3-5.5-2-6.3-3.8c-0.7-1.8,1.1-4.5,1.9-7.2l-15-6.7
	l-6.7,15.1l7.6,3c-1,2.6-1.9,5-2.9,7.8l22.3,10l-3.4,7.7l-52.8-23.6l-6.7,15l22.5,10l-3.4,7.6l-30-13.4l-6.8,15.1l30.1,13.4
	l-3.3,7.4l-22.6-10.1L240,323l30,13.4l-3.4,7.6l-22.5-10L240.8,341.4z"/>
<path class="st1" d="M133.5,25c1.7,0,3.2,0.9,4.5,2.8c1.3,2,2.2,4.2,2.7,6.5c1.5,6.3,2.1,12.8,1.9,19.2c0,6.5-0.8,12.9-2.5,19.2
	c-0.6,2.3-1.6,4.5-2.9,6.6c-1.3,1.9-2.8,2.8-4.4,2.8c-1.6,0-3.1-0.9-4.4-2.8c-1.2-2-2.1-4.2-2.6-6.5c-1.4-6.3-2-12.7-1.8-19.2
	c0-6.5,0.8-12.9,2.3-19.2c0.6-2.3,1.5-4.5,2.7-6.5C130.4,26,131.8,25.1,133.5,25z M133.6,26.9c-1.2,0.2-2.3,0.9-2.9,2
	c-1.1,1.9-2,3.9-2.5,6c-1.5,6.1-2.3,12.4-2.2,18.7c-0.2,6.3,0.4,12.5,1.7,18.7c0.5,2.1,1.3,4.1,2.4,6c0.9,1.3,1.8,1.9,2.8,1.9
	s2-0.7,2.9-2c1.2-1.8,2.1-3.9,2.6-6c1.6-6.1,2.4-12.4,2.4-18.8c0.2-6.3-0.4-12.6-1.8-18.7c-0.5-2.1-1.3-4.1-2.5-5.9
	C135.9,27.8,134.8,27.1,133.6,26.9z"/>
<path class="st1" d="M162.5,25c0.7,0,1.4,0.2,2.1,0.4c0.3,0.1,0.7,0.3,1,0.5c0.2,0.1,0.5,0.3,0.6,0.5l0.2,0.2
	c0.2,0.2,0.3,0.4,0.3,0.7c0,0.3-0.1,0.5-0.3,0.7c-0.2,0.2-0.4,0.2-0.6,0.2c-0.3,0-0.5-0.1-0.7-0.3c-0.3-0.3-0.6-0.5-1-0.6
	c-1.1-0.4-2.4-0.3-3.4,0.2c-1.5,0.7-2.7,1.8-3.4,3.2c-1.2,2-2.2,4.1-2.9,6.4c-1.7,5.9-2.6,11.9-2.7,18c-0.3,5.8,0.4,11.7,2,17.3
	c0.6,2.1,1.5,4,2.8,5.7c0.9,1.2,2.2,2,3.6,2.2c1.4,0.2,2.7-0.4,3.6-1.4c0.5-0.5,0.9-1.1,1.1-1.7c0.2-0.5,0.8-0.7,1.3-0.5
	c0.2,0.1,0.4,0.3,0.5,0.5c0.1,0.2,0.1,0.5,0,0.7c-0.3,0.9-0.8,1.7-1.5,2.3c-1.3,1.5-3.2,2.3-5.2,2c-2-0.3-3.8-1.3-5-2.9
	c-1.4-1.9-2.5-4-3.1-6.3c-1.5-4.8-2.2-10.8-2.1-17.9c0.1-6.3,1-12.5,2.8-18.5c1.9-6,4.3-9.6,7.4-10.8C160.6,25.2,161.6,25,162.5,25z
	"/>
<path class="st1" d="M189.8,25c0.1,0,0.3,0,0.4,0.1c0.2,0.1,0.4,0.3,0.5,0.5c0.1,0.2,0.1,0.5,0,0.7l-14.4,30.9L190,80.6
	c0.2,0.2,0.2,0.5,0.1,0.7c-0.1,0.2-0.2,0.4-0.4,0.6c-0.2,0.1-0.5,0.2-0.7,0.1c-0.2-0.1-0.4-0.2-0.6-0.4l-12.9-21.8v21.3
	c0,0.3-0.1,0.5-0.3,0.7c-0.3,0.4-0.9,0.4-1.3,0c0,0,0,0,0,0c-0.2-0.2-0.3-0.4-0.3-0.7V26c0-0.3,0.1-0.5,0.3-0.7
	c0.3-0.4,0.9-0.4,1.2-0.1c0,0,0,0,0.1,0.1c0.2,0.2,0.3,0.4,0.3,0.7v28.4L189,25.6C189.1,25.3,189.5,25,189.8,25z"/>
<path class="st2" d="M91.7,2.3h0.4c3.9,0,7.8,1,11.3,2.9c3.5,2,6.3,5.1,8,8.8c1.9,3.9,2.6,9,2.1,15.1c-0.4,4-1.5,8-3.1,11.7
	c-1.6,3.7-3.6,7.3-6,10.5c-2.3,3.1-4.3,5.6-5.9,7.4c-1.5,1.7-3.1,3.3-4.7,4.8l25.1,34.8c0.3,0.4,0.4,0.8,0.3,1.3
	c-0.1,0.4-0.3,0.8-0.7,1c-0.4,0.2-0.8,0.3-1.2,0.2c-0.4,0-0.8-0.3-1.1-0.6L90.2,64.3c-0.2-0.3-0.3-0.7-0.3-1.1c0-0.5,0.2-1,0.6-1.3
	c0.5-0.5,1.1-1.1,1.9-1.8s2.3-2.4,4.5-4.8c2-2.3,4-4.8,5.7-7.3c1.9-2.8,3.5-5.9,4.8-9c1.4-3.3,2.4-6.7,2.8-10.2
	c0.9-10.2-1.9-17.1-8.4-20.7C98,5.9,93.6,5.2,89.2,5.9v93.4c0,0.4-0.2,0.9-0.5,1.2c-0.6,0.6-1.6,0.7-2.2,0.1c0,0,0,0-0.1-0.1
	c-0.3-0.3-0.5-0.7-0.5-1.2V4.5c-0.1-0.8,0.4-1.4,1.2-1.6C88.7,2.5,90.2,2.4,91.7,2.3z"/>
<path class="st1" d="M261.4,25.1c0.5,0,0.8,0.3,0.9,0.7l10.6,55.1c0,0.2,0,0.5-0.2,0.7c-0.1,0.2-0.4,0.4-0.6,0.4
	c-0.5,0.1-1-0.2-1.1-0.7l-4.2-22h-10.1l-3.7,22c0,0.2-0.2,0.4-0.4,0.6c-0.2,0.2-0.5,0.2-0.7,0.2c-0.2,0-0.5-0.2-0.6-0.4
	c-0.2-0.2-0.2-0.5-0.2-0.7l9.3-55.1C260.5,25.4,260.9,25.1,261.4,25.1C261.3,25.1,261.4,25.1,261.4,25.1z M261.4,31.3l-4.4,26h9.4
	L261.4,31.3z"/>
<path class="st1" d="M283.2,25c0.1,0,0.2,0,0.2,0.1c2.3,0,4.5,0.5,6.5,1.7c2.1,1.1,3.7,2.9,4.6,5.1c1.2,2.8,1.6,5.8,1.1,8.8
	c-0.2,2.5-0.8,4.9-1.8,7.1c-0.8,2-1.8,3.9-3.1,5.7c-1.1,1.5-2.4,2.9-3.8,4.2c-1,1-2.1,1.9-3.2,2.7c-0.7,0.5-1.4,0.9-2.1,1.3v19.5
	c0,0.3-0.1,0.5-0.3,0.7c-0.3,0.4-0.9,0.4-1.3,0c0,0,0,0,0,0c-0.2-0.2-0.3-0.4-0.3-0.7V26.3c0-0.4,0.3-0.8,0.7-0.9
	C281.5,25.2,282.4,25.1,283.2,25z M283.2,27c-0.5,0-0.9,0-1.4,0.1v32.3c0.8-0.5,1.6-1.1,2.4-1.7c1-0.9,2-1.8,2.9-2.8
	c1.1-1.2,2.1-2.4,3-3.8c1-1.5,1.8-3.1,2.4-4.8c0.8-1.9,1.2-3.8,1.5-5.9c0.5-5.9-1.1-10-4.9-12.1c-1.7-0.9-3.7-1.4-5.7-1.4L283.2,27z
	"/>
<path class="st1" d="M303.8,25.5H316c0.2,0,0.5,0.1,0.6,0.3c0.2,0.2,0.3,0.4,0.3,0.7c0,0.3-0.1,0.5-0.3,0.7
	c-0.2,0.2-0.4,0.2-0.6,0.3h-11.2v29.9h9.6c0.2,0,0.5,0.1,0.6,0.3c0.2,0.2,0.3,0.4,0.3,0.7c0,0.3-0.1,0.5-0.3,0.7
	c-0.2,0.2-0.4,0.3-0.6,0.3h-9.6v20.5H316c0.2,0,0.5,0.1,0.6,0.2c0.2,0.2,0.3,0.4,0.3,0.7c0,0.3-0.1,0.5-0.3,0.7
	c-0.2,0.2-0.4,0.3-0.6,0.3h-12.2c-0.2,0-0.3-0.1-0.5-0.2c-0.1-0.1-0.3-0.2-0.3-0.3c-0.1-0.2-0.1-0.3-0.1-0.5V26.5
	c0-0.3,0.1-0.5,0.3-0.7C303.4,25.6,303.6,25.5,303.8,25.5z"/>
<path class="st1" d="M327.3,25h0.2c2.3,0,4.5,0.6,6.5,1.7c2,1.2,3.7,2.9,4.6,5.1c1.2,2.8,1.6,5.8,1.2,8.7c-0.3,2.3-0.9,4.6-1.8,6.8
	c-0.9,2.2-2.1,4.2-3.5,6.1c-1.3,1.8-2.5,3.2-3.4,4.3c-0.9,1-1.8,1.9-2.7,2.8L343,80.5c0.2,0.2,0.2,0.5,0.2,0.7
	c0,0.2-0.2,0.5-0.4,0.6c-0.2,0.1-0.5,0.2-0.7,0.2c-0.2,0-0.5-0.2-0.6-0.3l-15-20.8c-0.1-0.2-0.2-0.4-0.2-0.6c0-0.3,0.1-0.6,0.3-0.7
	c0.3-0.3,0.6-0.6,1.1-1.1s1.3-1.4,2.6-2.8c1.2-1.3,2.3-2.8,3.3-4.2c1.1-1.6,2-3.4,2.8-5.2c0.8-1.9,1.4-3.9,1.6-5.9
	c0.5-5.9-1.1-9.9-4.9-12c-2.2-1.2-4.8-1.7-7.3-1.3v54c0,0.3-0.1,0.5-0.3,0.7c-0.4,0.4-0.9,0.4-1.3,0c0,0,0,0,0,0
	c-0.2-0.2-0.3-0.4-0.3-0.7V26.3c0-0.4,0.2-0.8,0.7-0.9C325.5,25.2,326.4,25.1,327.3,25z"/>
<path class="st2" d="M225.8,2.3c0.1,0,0.3,0,0.4,0.1c4,0,7.8,1,11.3,2.9c3.5,2,6.3,5.1,8,8.8c1.9,4,2.6,9.1,2,15.2
	c-0.4,4.3-1.4,8.4-3.1,12.4c-1.4,3.5-3.2,6.8-5.4,9.8c-2,2.6-4.1,5-6.5,7.3c-1.7,1.7-3.6,3.3-5.6,4.7c-1.2,0.8-2.4,1.6-3.6,2.2v33.7
	c0,0.4-0.2,0.9-0.5,1.2c-0.6,0.6-1.6,0.7-2.2,0.1c0,0-0.1-0.1-0.1-0.1c-0.3-0.3-0.5-0.7-0.5-1.2V4.5c-0.1-0.7,0.4-1.4,1.2-1.6
	C222.8,2.5,224.3,2.4,225.8,2.3z M225.7,5.7c-0.8,0-1.6,0.1-2.4,0.2v55.9c1.4-0.9,2.8-1.9,4.2-3c1.8-1.5,3.5-3.1,5.1-4.8
	c1.9-2,3.7-4.2,5.2-6.6c1.7-2.6,3.1-5.5,4.2-8.4c1.3-3.3,2.1-6.7,2.4-10.1c0.9-10.3-1.9-17.3-8.4-20.9c-3-1.6-6.4-2.4-9.8-2.4
	L225.7,5.7z"/>
<path class="st1" d="M181.2,115.8c0.7,0,1.4,0.2,2.1,0.4c0.4,0.1,0.7,0.3,1,0.5c0.2,0.1,0.5,0.3,0.6,0.5l0.2,0.2
	c0.2,0.2,0.3,0.4,0.2,0.7c0,0.3-0.1,0.5-0.3,0.7c-0.2,0.2-0.4,0.3-0.7,0.2c-0.3,0-0.5-0.1-0.7-0.3c-0.3-0.3-0.6-0.5-1-0.6
	c-1.1-0.4-2.3-0.3-3.4,0.2c-1.4,0.7-2.6,1.8-3.4,3.2c-1.2,2-2.2,4.1-2.9,6.4c-1.7,5.9-2.6,11.9-2.7,18c-0.1,6.9,0.5,12.6,2,17.3
	c0.6,2,1.5,4,2.8,5.7c0.9,1.2,2.2,2,3.7,2.2c1.4,0.2,2.7-0.4,3.6-1.4c0.5-0.5,0.9-1.1,1.1-1.7c0.1-0.2,0.3-0.4,0.5-0.5
	c0.2-0.1,0.5-0.1,0.7,0c0.2,0.1,0.4,0.3,0.5,0.5c0.1,0.2,0.1,0.5,0,0.7c-0.4,0.9-0.9,1.7-1.5,2.4c-1.3,1.5-3.2,2.3-5.2,2
	c-2-0.3-3.8-1.3-5-2.9c-1.4-1.9-2.5-4-3.1-6.3c-1.6-5.8-2.3-11.9-2.1-17.9c0.1-6.3,1-12.5,2.8-18.5c1.9-6,4.3-9.6,7.4-10.8
	C179.4,116.1,180.3,115.8,181.2,115.8z"/>
<path class="st1" d="M193.3,116.3h2.7c0.6,0,1,0.4,1,1c0,0.3-0.1,0.5-0.3,0.7c-0.2,0.2-0.4,0.3-0.7,0.3h-0.4v52.3h0.4
	c0.3,0,0.5,0.1,0.7,0.3c0.2,0.2,0.3,0.4,0.3,0.7c0,0.6-0.4,1-1,1h-2.8c-0.2,0-0.5-0.1-0.6-0.3c-0.2-0.2-0.3-0.4-0.3-0.7
	c0-0.3,0.1-0.5,0.3-0.7c0.2-0.2,0.4-0.3,0.6-0.3h0.5v-52.4h-0.5c-0.2,0-0.5-0.1-0.6-0.3c-0.2-0.2-0.3-0.4-0.3-0.7
	c0-0.3,0.1-0.5,0.3-0.7C192.8,116.4,193,116.3,193.3,116.3z"/>
<path class="st1" d="M214,115.8c2.1,0,4.1,1,5.3,2.8c0.7,1,1.2,2.1,1.5,3.3c0,0.2,0,0.5-0.2,0.7c-0.1,0.2-0.4,0.4-0.6,0.4
	c-0.2,0.1-0.5,0-0.7-0.2c-0.2-0.2-0.4-0.4-0.4-0.6c-0.2-0.9-0.6-1.8-1.1-2.5c-1-1.5-2.8-2.3-4.6-1.9c-1.9,0.3-3.4,1.8-4.6,4.5
	c-1.2,3-1.6,6.3-1.1,9.5c0.2,1.9,0.8,3.8,1.5,5.6c0.6,1.6,1.4,3.1,2.2,4.5c0.7,1.1,1.7,2.6,3,4.5c0.2,0.3,0.4,0.6,0.5,0.7
	c0.9,1.4,1.7,2.6,2.3,3.6c0.7,1.1,1.3,2.3,1.8,3.5c1.2,2.6,1.7,5.5,1.4,8.4c-0.1,2.9-1.3,5.7-3.3,7.8c-1.6,1.8-3.9,2.7-6.3,2.5
	c-1.7-0.1-3.3-0.9-4.5-2.1c-1.2-1.2-1.9-2.8-2.2-4.5c0-0.2,0-0.5,0.2-0.7c0.1-0.2,0.4-0.3,0.6-0.4c0.3,0,0.5,0.1,0.7,0.2
	c0.2,0.1,0.3,0.3,0.4,0.6c0.2,1.3,0.7,2.5,1.6,3.4c0.9,1,2.1,1.5,3.4,1.7c1.9,0.1,3.6-0.7,4.9-2.1c1.6-1.8,2.6-4.1,2.7-6.6
	c0.2-2.3-0.1-4.7-1-6.8c-1.2-2.6-2.6-5-4.2-7.3c-0.1-0.2-0.3-0.5-0.6-0.9c-1-1.4-1.8-2.6-2.3-3.4s-1.2-1.9-2-3.4
	c-0.7-1.3-1.4-2.7-1.8-4.2c-0.5-1.4-0.8-2.9-1-4.4c-0.5-3.6-0.1-7.2,1.3-10.5c1.4-3.3,3.4-5.1,6.1-5.6
	C213.2,115.9,213.6,115.8,214,115.8z"/>
<path class="st1" d="M236.9,115.8c2.1,0,4.1,1,5.3,2.8c0.7,1,1.2,2.1,1.5,3.3c0,0.2,0,0.5-0.2,0.7c-0.1,0.2-0.4,0.4-0.6,0.4
	c-0.2,0.1-0.5,0-0.7-0.2c-0.2-0.2-0.4-0.4-0.4-0.6c-0.2-0.9-0.6-1.8-1.1-2.5c-1-1.5-2.8-2.3-4.6-1.9c-1.9,0.3-3.4,1.8-4.6,4.5
	c-1.2,3-1.6,6.3-1.1,9.5c0.2,1.9,0.8,3.8,1.6,5.6c0.6,1.6,1.4,3.1,2.2,4.5c0.7,1.1,1.7,2.6,3,4.5c0.2,0.3,0.4,0.6,0.5,0.7
	c1,1.4,1.7,2.6,2.3,3.6c0.7,1.1,1.3,2.3,1.8,3.5c0.6,1.3,1,2.7,1.3,4.1c0.2,1.4,0.3,2.8,0.1,4.3c-0.1,2.9-1.3,5.7-3.3,7.8
	c-1.6,1.8-3.9,2.7-6.3,2.5c-1.7-0.1-3.3-0.9-4.5-2.1c-1.2-1.2-2-2.8-2.2-4.5c0-0.3,0-0.5,0.2-0.7c0.1-0.2,0.4-0.3,0.6-0.4
	c0.3,0,0.5,0.1,0.7,0.2c0.2,0.1,0.3,0.3,0.4,0.6c0.2,1.3,0.7,2.5,1.6,3.4c0.9,1,2.1,1.5,3.4,1.7c1.8,0.1,3.6-0.7,4.9-2.1
	c1.6-1.8,2.6-4.1,2.7-6.6c0.2-2.3-0.1-4.7-1-6.8c-1.2-2.6-2.6-5-4.2-7.3c-0.1-0.2-0.3-0.5-0.6-0.9c-1-1.4-1.8-2.6-2.3-3.4
	s-1.2-1.9-1.9-3.4c-0.7-1.3-1.4-2.7-1.8-4.2c-0.5-1.4-0.8-2.9-1-4.4c-0.5-3.6-0.1-7.2,1.3-10.5c1.4-3.3,3.4-5.1,6.1-5.6
	C236.1,115.8,236.5,115.8,236.9,115.8z"/>
<path class="st1" d="M260.1,115.8c1.7,0,3.2,0.9,4.5,2.8c1.3,2,2.2,4.2,2.7,6.5c1.5,6.3,2.1,12.8,1.9,19.2c0,6.5-0.8,12.9-2.5,19.2
	c-0.6,2.3-1.6,4.5-2.9,6.5c-1.3,1.9-2.8,2.8-4.4,2.8c-1.6,0-3.1-0.9-4.4-2.8c-1.2-2-2.1-4.2-2.6-6.5c-1.4-6.3-2-12.7-1.8-19.2
	c0-6.5,0.8-12.9,2.4-19.2c0.6-2.3,1.5-4.5,2.8-6.5C257,116.8,258.4,115.9,260.1,115.8z M260.1,117.7c-1.2,0.2-2.3,0.9-2.9,2
	c-1.1,1.9-2,3.9-2.5,6c-1.5,6.1-2.3,12.4-2.3,18.7c-0.2,6.3,0.4,12.5,1.8,18.6c0.5,2.1,1.3,4.1,2.4,6c0.9,1.3,1.8,1.9,2.8,1.9
	s2-0.7,2.9-2c1.2-1.8,2.1-3.8,2.6-5.9c1.6-6.1,2.4-12.4,2.4-18.8c0.2-6.3-0.4-12.6-1.8-18.7c-0.5-2.1-1.3-4.1-2.5-5.9
	C262.5,118.6,261.4,117.8,260.1,117.7L260.1,117.7z"/>
<path class="st1" d="M279.5,115.8h0.2c2.3,0,4.5,0.6,6.5,1.7c2,1.2,3.7,2.9,4.6,5.1c1.2,2.7,1.6,5.8,1.2,8.7
	c-0.3,2.3-0.9,4.6-1.8,6.8c-0.9,2.2-2.1,4.2-3.5,6.1c-1.4,1.8-2.5,3.2-3.4,4.3s-1.8,2-2.7,2.8l14.5,20.1c0.1,0.2,0.2,0.5,0.2,0.8
	c0,0.2-0.2,0.5-0.4,0.6c-0.2,0.1-0.5,0.2-0.7,0.1c-0.2,0-0.5-0.2-0.6-0.3l-15-20.8c-0.1-0.2-0.2-0.4-0.2-0.6c0-0.3,0.1-0.6,0.3-0.7
	c0.3-0.3,0.6-0.6,1.1-1.1s1.3-1.4,2.6-2.8c1.2-1.3,2.3-2.8,3.3-4.2c1.1-1.6,2-3.4,2.8-5.2c0.8-1.9,1.4-3.9,1.6-5.9
	c0.5-5.9-1.1-9.9-4.9-12c-2.2-1.2-4.8-1.7-7.3-1.3v54c0,0.3-0.1,0.5-0.3,0.7c-0.3,0.4-0.9,0.4-1.3,0c0,0,0,0,0,0
	c-0.2-0.2-0.3-0.4-0.3-0.7V117c0-0.4,0.3-0.8,0.7-0.9C277.8,115.9,278.6,115.8,279.5,115.8z"/>
<path class="st1" d="M310.2,115.8c2.1,0,4.1,1,5.3,2.8c0.7,1,1.2,2.1,1.5,3.3c0,0.2,0,0.5-0.2,0.7c-0.1,0.2-0.4,0.4-0.6,0.4
	c-0.2,0.1-0.5,0-0.7-0.2c-0.2-0.2-0.4-0.4-0.4-0.6c-0.2-0.9-0.6-1.8-1.1-2.5c-1-1.5-2.8-2.3-4.6-1.9c-1.9,0.3-3.4,1.8-4.6,4.5
	c-1.2,3-1.6,6.3-1.1,9.5c0.2,1.9,0.8,3.8,1.5,5.6c0.6,1.5,1.4,3.1,2.2,4.5c0.7,1.1,1.7,2.6,3,4.5l0.5,0.7c1,1.4,1.7,2.6,2.3,3.6
	c0.7,1.1,1.3,2.3,1.8,3.5c1.2,2.6,1.7,5.5,1.4,8.4c-0.1,2.9-1.3,5.7-3.3,7.8c-1.6,1.8-3.9,2.7-6.3,2.5c-1.7-0.1-3.3-0.9-4.5-2.1
	c-1.2-1.2-1.9-2.8-2.2-4.5c0-0.2,0-0.5,0.2-0.7c0.1-0.2,0.4-0.3,0.6-0.4c0.3,0,0.5,0.1,0.7,0.2c0.2,0.1,0.3,0.3,0.4,0.6
	c0.2,1.3,0.7,2.5,1.6,3.4c0.9,1,2.1,1.5,3.4,1.7c1.9,0.1,3.6-0.7,4.9-2.1c1.6-1.8,2.6-4.1,2.7-6.6c0.2-2.3-0.1-4.7-1-6.8
	c-1.2-2.6-2.6-5-4.2-7.3c-0.1-0.2-0.3-0.5-0.6-0.9c-1-1.4-1.8-2.6-2.3-3.4s-1.2-1.9-2-3.4c-0.7-1.3-1.4-2.7-1.8-4.2
	c-0.5-1.4-0.8-2.9-1-4.4c-0.5-3.6-0.1-7.2,1.2-10.5c1.4-3.3,3.4-5.1,6.1-5.6C309.4,115.9,309.8,115.8,310.2,115.8z"/>
<path class="st2" d="M148,93.1c3.7-0.1,7.1,1.7,9.2,4.8c1.3,1.7,2.1,3.6,2.6,5.6c0.1,0.4,0,0.8-0.3,1.2c-0.2,0.4-0.6,0.6-1,0.8
	c-0.4,0.1-0.9,0-1.2-0.2c-0.4-0.3-0.6-0.7-0.7-1.1c-0.4-1.6-1-3.1-2-4.3c-1.7-2.6-4.9-3.9-7.9-3.3c-3.3,0.6-5.9,3.2-7.9,7.7
	c-2.2,5.2-2.8,10.9-2,16.4c0.4,3.4,1.3,6.6,2.7,9.8c1.1,2.7,2.4,5.3,3.9,7.8c1.2,1.9,2.9,4.5,5.1,7.8c0.4,0.6,0.7,1,0.9,1.3
	c1.6,2.4,3,4.5,4,6.1c1.1,1.9,2.2,3.9,3.1,6c2.1,4.5,3,9.5,2.4,14.5c-0.5,5.7-2.4,10.2-5.7,13.5s-6.9,4.7-10.9,4.4
	c-3-0.2-5.7-1.5-7.8-3.7c-2-2.1-3.4-4.8-3.8-7.8c-0.1-0.4,0-0.9,0.3-1.2c0.3-0.4,0.7-0.6,1.1-0.6c0.4,0,0.9,0.1,1.2,0.3
	c0.3,0.2,0.6,0.6,0.6,1c0.3,2.2,1.3,4.3,2.8,5.9c1.5,1.7,3.6,2.7,5.8,2.9c3,0.2,5.8-1,8.4-3.6c2.6-2.6,4.2-6.4,4.7-11.3
	c0.4-4-0.1-8.1-1.7-11.8c-2-4.4-4.4-8.7-7.2-12.6c-0.2-0.3-0.5-0.8-1-1.5c-1.7-2.5-3.1-4.5-4-5.9c-0.9-1.5-2.1-3.4-3.4-5.8
	c-1.3-2.3-2.3-4.8-3.2-7.3c-0.8-2.4-1.4-5-1.7-7.5c-0.9-6.2-0.2-12.5,2.2-18.2c2.4-5.7,5.9-8.9,10.5-9.6
	C146.7,93.2,147.4,93.1,148,93.1z"/>
</svg>
