<?xml version="1.0" standalone="no"?>
<!DOCTYPE svg PUBLIC "-//W3C//DTD SVG 20010904//EN"
 "http://www.w3.org/TR/2001/REC-SVG-20010904/DTD/svg10.dtd">
<svg version="1.0" xmlns="http://www.w3.org/2000/svg"
 width="614.000000pt" height="655.000000pt" viewBox="0 0 614.000000 655.000000"
 preserveAspectRatio="xMidYMid meet">
<metadata>
Created by potrace 1.16, written by Peter Selinger 2001-2019
</metadata>
<g transform="translate(0.000000,655.000000) scale(0.100000,-0.100000)"
fill="#000000" stroke="none">
<path d="M1048 5697 c-642 -650 -660 -671 -707 -812 -111 -335 41 -685 363
-836 167 -78 378 -78 550 0 78 35 184 108 217 148 l22 28 -6 -82 c-14 -185
-78 -419 -151 -545 -24 -43 -39 -78 -33 -78 35 -1 717 -5 717 -4 0 1 -22 43
-49 95 -71 135 -123 329 -147 549 l-7 65 56 -52 c75 -68 154 -115 252 -150 72
-25 93 -28 210 -27 116 0 139 3 210 28 206 71 356 220 429 425 28 78 31 97 31
211 0 111 -3 135 -29 214 -50 152 -81 189 -583 696 -253 256 -520 527 -593
603 -73 75 -136 137 -140 137 -4 0 -279 -276 -612 -613z"/>
<path d="M4540 6188 c-222 -363 -570 -821 -834 -1096 -149 -156 -176 -186
-176 -196 0 -5 53 -63 118 -131 298 -308 615 -716 849 -1092 47 -76 91 -144
97 -151 10 -10 23 5 66 75 84 139 241 373 336 501 180 241 315 401 608 717
l79 86 -89 92 c-350 361 -680 789 -950 1232 l-41 67 -63 -104z"/>
<path d="M4451 2965 c-209 -59 -385 -242 -441 -461 -36 -140 -19 -286 54 -474
6 -14 -15 -15 -168 -12 -204 5 -233 -2 -351 -79 -139 -90 -225 -200 -271 -343
-97 -305 33 -629 307 -765 93 -46 163 -61 299 -61 239 0 452 116 548 298 18
34 36 62 39 62 8 0 -4 -151 -23 -280 -29 -210 -88 -369 -198 -540 l-67 -105
28 -6 c37 -9 853 -11 853 -3 0 4 -27 50 -59 103 -147 237 -209 437 -226 728
-7 110 -12 109 64 3 70 -96 204 -188 351 -241 92 -33 264 -34 365 -2 189 60
339 205 413 401 23 60 26 82 27 202 0 112 -4 147 -22 205 -41 130 -140 251
-281 346 -109 73 -152 82 -354 77 -148 -3 -168 -2 -162 12 49 119 66 192 71
300 7 138 -5 203 -54 303 -43 85 -156 203 -245 255 -107 63 -189 86 -323 89
-84 2 -136 -2 -174 -12z"/>
<path d="M905 2920 c-141 -30 -242 -87 -357 -201 -74 -74 -93 -100 -137 -190
-74 -152 -94 -249 -88 -419 7 -193 50 -335 155 -512 76 -130 172 -239 507
-578 355 -360 442 -459 612 -697 63 -90 119 -160 124 -157 5 3 28 33 51 67 64
96 230 315 288 382 29 33 201 212 383 399 427 436 477 498 572 699 155 327
128 680 -71 944 -65 87 -141 150 -246 203 -161 81 -338 91 -520 30 -117 -39
-187 -82 -264 -162 -75 -78 -115 -136 -161 -236 l-35 -77 -47 97 c-83 169
-176 269 -316 338 -44 21 -107 46 -140 55 -70 19 -252 28 -310 15z"/>
</g>
</svg>
