<svg id="Capa_1" data-name="Capa 1" xmlns="http://www.w3.org/2000/svg" viewBox="0 0 389.3 378.8"><defs><style>.cls-1{fill:#fff;}</style></defs><g id="LICIB4"><path class="cls-1" d="M331.78,374.32a17.8,17.8,0,0,1-1.85-1.07q-7.46-5.43-14.88-10.91c-.75-.56-1.33-1-2.29-.2-7.67,6.2-16.75,8.93-26.3,10.35-2.67.39-5.38.44-8.06.73-7.47.78-13.08-3.62-16-9.91-3.92-8.46-3.75-17.3-1.93-26.21a40.71,40.71,0,0,1,5.06-12.91c.51-.84.57-1.41-.26-2.09q-7.59-6.19-15.13-12.44a3.9,3.9,0,0,0-.88-.3c.13,1.55.18,2.94.37,4.31q3.44,24.9,6.87,49.81c.35,2.54.45,5.11.6,7.68.09,1.6-.63,2.17-2.33,2a5.45,5.45,0,0,0-3.23.84c-1.37.91-2.39.86-3.1-.54a46.85,46.85,0,0,1-3-6.67c-4.24-13-6.55-26.43-8.12-40-1.12-9.6-1.83-19.25-2.67-28.88-.14-1.53-.94-2-2.33-2.1q-15-.86-29.9-1.76-22.36-1.39-44.74-2.86c-2.52-.16-2.49-.22-2.61,2.28-1,19.69-2,39.37-2.95,59.07-.35,7.53-.38,15.07-.58,22.6,0,1.17-.24,2.33-.36,3.49l-.48.12a7.9,7.9,0,0,1-.84-1.86c-1.17-6.67-2.85-13.31-3.28-20-.91-14.28-1.19-28.6-1.66-42.9-.23-7-.32-14.06-.41-21.1,0-1.74-.37-2.65-2.49-2.78-9.59-.57-19.18-1.2-28.74-2.11-17.3-1.64-34.59-3.48-51.88-5.27a27.39,27.39,0,0,1-3.73-.91l0-.59a40.2,40.2,0,0,1,4.35-.59c11.42-.27,22.84-.68,34.27-.68,15.26,0,30.52.3,45.78.53,1.53,0,1.78-.6,1.7-1.9-.58-10.35-1.12-20.69-1.68-31q-.74-13.55-1.5-27.08c-.16-2.74-.2-2.72-2.92-2.75-21.47-.2-42.95-.37-64.42-.67-4.13-.06-8.25-.65-12.38-1a11.55,11.55,0,0,1-2.37-.58c-1.21-.4-1.61-1.16-.82-2.29a2.82,2.82,0,0,0,.09-3.49c-1-1.47-.38-2.52,1.09-2.83A51.51,51.51,0,0,1,68,205.36c17.83-.52,35.65-.87,53.48-1.27.79,0,1.57,0,2.77,0a12.32,12.32,0,0,0-1-1.3c-2.66-2.3-5.37-4.55-8-6.88a1.77,1.77,0,0,0-2.47-.13,39,39,0,0,1-27.27,4.64c-8.78-1.66-13.55-8-15.45-16.42s-.42-16.24,3.61-23.68a2.55,2.55,0,0,0-.46-3.57C66.51,150,60.07,143,54.9,135c-3.39-5.25-6.33-10.72-7.36-17a9.51,9.51,0,0,1-.13-2.06c.06-1.14.68-1.65,1.75-1a2.47,2.47,0,0,0,3.71-.82c.8-1.12,1.73-.95,2.46,0a39.66,39.66,0,0,1,2.26,3.47c5.66,9.61,13.08,17.78,20.89,25.63,1.24,1.24,2.54,2.43,3.71,3.75s2.23,1.51,3.87.61a22.33,22.33,0,0,1,23.44.66c1.3.79,1.16,1.87.37,3.22a19.44,19.44,0,0,0-1.85,5c-.12.44.59,1.16,1,1.65,4.08,4.49,7.79,9.25,9.76,15.07.87,2.58,1.19,5.35,1.82,8a3.85,3.85,0,0,0,.85,2c5.65,5,11.37,9.89,17.07,14.81a4.74,4.74,0,0,0,.95.45c0-1,0-1.87,0-2.71-.35-12.93-.84-25.86-1-38.79-.08-5.94.34-11.91.78-17.84.19-2.66.8-2.79,3.29-2.14a4.4,4.4,0,0,0,2.51-.17c2.25-.83,3-.68,3.57,1.65a49.55,49.55,0,0,1,1.68,8.67c.9,12,1.66,24,2.37,36.08.37,6.33.56,12.67.75,19,0,1.47.55,1.91,2,1.93q29.29.36,58.59.82c6.34.1,12.68.31,19,.54,1.59.06,2.3-.22,2.43-2.08q1.72-25.26,3.69-50.52c.24-3,.89-6,1.34-9l.79-.06a17.1,17.1,0,0,1,.71,2.68c.52,5.24,1.22,10.49,1.42,15.75.54,13.8.87,27.61,1.22,41.42,0,1.52.46,2.06,2,2.1,12.68.3,25.36.71,38,1,3.88.1,7.76,0,11.87,0a13.09,13.09,0,0,0-1-1c-4.34-3.52-8.72-7-13-10.56a2.21,2.21,0,0,0-3-.23c-5.58,3.16-11.26,6.15-17.6,7.51a24.53,24.53,0,0,1-5.41.54,16.18,16.18,0,0,1-3.52-.83l-.15-.67c.75-.56,1.49-1.14,2.26-1.69l17.41-12.52a6.68,6.68,0,0,0,.76-.85c-1.1-1.18-2.15-2.31-3.2-3.46-5.53-6-10.62-12.43-14.13-19.88a44.52,44.52,0,0,1-2.82-8.54c-.64-2.68.3-3.63,3-4a15.59,15.59,0,0,0,3.07-.8c2.42-.85,3.56-.65,5.07,1.44,1.35,1.88,2.44,3.95,3.74,5.87,4.5,6.66,9.06,13.27,13.54,19.94.94,1.41,1.63,1.19,2.78.22,7.11-6,14.21-12,21.45-17.79a34.46,34.46,0,0,1,6.8-4c2.76-1.33,3.86-.77,5.11,1.95a12.64,12.64,0,0,0,1.4,2.23c1.64,2.16,1.8,3.54-.06,5.5a72.57,72.57,0,0,1-7.45,6.9c-6.45,5.09-13.05,10-19.59,15l-1.62,1.24c1.18,1.55,2.31,3,3.36,4.43,3.16,4.37,6.24,8.81,9.47,13.13a3.66,3.66,0,0,0,2.43,1.2c8.09.44,16.19.61,24.26,1.17a57.67,57.67,0,0,1,17.83,3.63c.7.29,1.36.64,2,1,.13.07.2.28.45.66-.78,0-1.38,0-2,0-12.25-.95-24.46-.34-36.7.39-14.41.86-28.84,1.42-43.27,2-7.15.29-14.31.39-21.47.5-1.58,0-2,.59-2,2.12.7,20.39,1.32,40.79,2.07,61.18.15,4.15-.22,3.37,3.71,3.52,18.45.75,36.9,1.36,55.33,2.28,12.73.63,25.44,1.64,38.14,2.61a57.16,57.16,0,0,1,7.94,1.48c1.41.31,1.71,1.1,1,2.52a4.63,4.63,0,0,0-.27,3.13c.64,2.13.45,2.95-1.79,3.22a89.61,89.61,0,0,1-12.74,1.06c-23.6-.56-47.19-1.31-70.79-2-5.27-.17-10.54-.49-15.81-.73a10.38,10.38,0,0,0-1.32.14c.66.7,1.06,1.19,1.53,1.62,6.15,5.56,12.32,11.08,18.43,16.69,1,1,1.68,1,2.83.09,8.56-6.51,17.86-7.35,27.71-3.33a12.08,12.08,0,0,1,2.31,1.27c2,1.38,2,2,.53,3.89-1.78,2.23-1.45,3.63,1.07,4.94,5.4,2.81,10.39,6.17,13.8,11.37,4.8,7.34,4.66,15.35-.28,22.61-1.5,2.19-1.45,2.14.48,4.06,3.83,3.8,7.62,7.65,11.4,11.51.67.69,1.22,1.5,1.82,2.25ZM216.2,282l.5-.62a9.88,9.88,0,0,1-1.59-.9c-5.12-4.25-10.25-8.5-15.29-12.84a2.5,2.5,0,0,0-3.45-.34,32.64,32.64,0,0,1-13.11,4.38,18.36,18.36,0,0,1-20.49-14.58c-1.16-5.72,0-11.1,2.66-16.21.42-.81.87-1.5-.1-2.31-3.43-2.84-6.82-5.74-10.23-8.6-.1-.08-.33,0-.62,0,0,.6,0,1.15,0,1.7.15,7.6.35,15.19.45,22.79q.15,12.15.15,24.3c0,1.42.39,2,1.91,2,2.51-.05,5,.11,7.53.17q21.27.54,42.55,1.06C210.11,282.06,213.16,282,216.2,282Zm-2.55-65.09-.16.67c.37.46.76.92,1.1,1.4,2.26,3.16,4.74,6.19,6.72,9.52,4.58,7.69,3.81,15.11-2.07,21.67a56.09,56.09,0,0,1-5.2,4.9c-1.74,1.51-3.59,2.89-5.59,4.49l25.39,22.7v-3c-.06-8.79-.27-17.57-.13-26.36.18-11.42.6-22.84,1-34.26,0-1.58-.53-1.93-2-1.87-2.88.12-5.77.12-8.66.14C220.61,216.92,217.13,216.91,213.65,216.91Zm-52.3.93c1.05,1,1.66,1.58,2.31,2.15,3.11,2.74,6.29,5.4,9.33,8.22,1.15,1.07,1.91,1.11,3.17.14,6-4.6,12.68-7.8,20.31-8.13a88.22,88.22,0,0,1,12.33.86,1.89,1.89,0,0,1,1.81,2.51,12.34,12.34,0,0,0,0,4.2,2.29,2.29,0,0,1-1.46,2.86,13.32,13.32,0,0,1-2.69.84c-2.83.56-5.68,1-8.52,1.56a27,27,0,0,0-12.54,5.72,3.49,3.49,0,0,0,.45.73c4.51,4,9,8,13.59,11.93a2.15,2.15,0,0,0,2,0c3.43-2.1,6.91-4.13,10.13-6.52,5.1-3.79,6.16-7.16,3.95-13.13-1.63-4.4-3.83-8.59-5.68-12.91a2.53,2.53,0,0,0-2.74-1.69q-21.75.26-43.51.43C163,217.6,162.44,217.71,161.35,217.84ZM277.23,332a3.38,3.38,0,0,0-.55.49,7.64,7.64,0,0,0-.64,1.15,33.84,33.84,0,0,0-3.23,15.89,42.16,42.16,0,0,0,2.05,9.27,3.31,3.31,0,0,0,2.5,1.81c8.52.18,16.91-.68,24.79-4.29,1-.45,1.91-1,3.09-1.68Zm5-6.41a5.38,5.38,0,0,0,.42.73q13,12,26,24.07c1,.88,1.46.45,2.11-.34,3.28-4,3.5-9.24.55-13.84-3.38-5.27-8.34-8.77-13.38-12.24a9.34,9.34,0,0,0-6.53-1.69A16.57,16.57,0,0,0,282.21,325.62ZM84.76,168.85a20.67,20.67,0,0,0-1.58,13.37c1.06,4.55,3.54,6.66,8.23,6.76,3.38.07,6.77-.16,10.15-.4a20,20,0,0,0,3.57-.88Zm9.7-10.71c2.05,3.33,13.08,13.66,15.61,14.82,0-.26.08-.54,0-.73-2.4-4.73-4.81-9.46-7.28-14.15a1.69,1.69,0,0,0-1.36-.73C99.21,157.52,97,157.83,94.46,158.14Zm82.65,90.41c-2.07,3.37-1.74,7.61.53,9.43s8,1.85,10.33-.26Z"/><path class="cls-1" d="M196.35,311.23l-1-2.44.41-.46c1.15.65,2.34,1.25,3.44,2q3.31,2.11,6.53,4.36a28.25,28.25,0,0,1,3.36,2.71,2,2,0,0,1,.35,3c-.27.36,0,1.38.35,1.93a33,33,0,0,1,5,16,18.34,18.34,0,0,1-6.51,15c-8.11,7-17.21,12.28-27.85,14.23-12.46,2.29-23.11-5.7-25-18.3-1.41-9.57,2-17.59,8.22-24.5,8.32-9.26,18.62-14.3,31.34-13.53C195.4,311.25,195.77,311.23,196.35,311.23ZM194.81,324c-11.21,1-19.74,5.91-24.83,16a15.7,15.7,0,0,0-1.42,7.08c.1,5.43,4.68,9.59,9.64,8.87a53.87,53.87,0,0,0,24.37-10.29,9.71,9.71,0,0,0,3.85-6.67c.65-4.3-.3-8.36-1.69-12.36a2,2,0,0,0-1.28-1.14C200.56,324.85,197.64,324.42,194.81,324Z"/><path class="cls-1" d="M96.33,251c2.07,2.21,3.94,4.14,5.76,6.12,3.44,3.75,6.93,7.51,8.67,12.41a22.14,22.14,0,0,1,.88,4.95,1.71,1.71,0,0,1-.59,1.43,1.67,1.67,0,0,1-1.48-.39c-7.44-7.15-16.59-11.93-24.88-17.9a2.59,2.59,0,0,0-2.92-.32c-9.43,4.12-18.82,8.35-27.42,14.1a8.8,8.8,0,0,1-1.33.69,1.91,1.91,0,0,1-.62,0c-.7-1.61.15-2.93.86-4.2,2.41-4.3,5.94-7.61,9.74-10.63,3-2.33,6.06-4.47,9.1-6.69.69-.51,1.4-1,2.17-1.54A46.62,46.62,0,0,1,70,243.13a68.64,68.64,0,0,1-3.6-8.83,7.43,7.43,0,0,1-.13-3.16A2.46,2.46,0,0,1,69,228.71a23.51,23.51,0,0,0,4.1-.38,4.43,4.43,0,0,1,4.88,2c2.3,3.36,4.71,6.64,7,10,.89,1.27,1.71,1.33,3.14.62C99,235.53,109.81,230.27,120.63,225a12.08,12.08,0,0,1,1.78-.62c2.93-.88,4.51-1,5.53,2.39a6.75,6.75,0,0,0,1.6,2.29c1.27,1.44,1.31,3,0,4.18a31.78,31.78,0,0,1-6.36,4.92c-7.82,4-15.78,7.7-23.7,11.5C98.44,250.13,97.41,250.56,96.33,251Z"/><path class="cls-1" d="M108.34,326.46c1.71,1.62,3.26,3,4.69,4.45,3.27,3.37,6.55,6.75,9.71,10.23a15.3,15.3,0,0,1,2.39,3.81,7.27,7.27,0,0,1,.27,2.46,7.14,7.14,0,0,1-2.32-.09,48.77,48.77,0,0,1-6.34-2.86Q106.8,338.73,97,332.77a2.54,2.54,0,0,0-2.93-.07L68.68,346.63a4.15,4.15,0,0,1-.81.47c-.56.16-1.15.24-1.73.35a5.63,5.63,0,0,1,0-1.78c1.22-4.12,4-7.28,7-10.09,3.82-3.53,8-6.69,12-10,.47-.39,1-.75,1.64-1.27-.56-.71-1-1.34-1.55-1.93-3.25-3.76-5.79-7.89-6.72-12.85a12.82,12.82,0,0,1-.22-2.62c.08-3,.88-3.7,3.9-3.59a32.35,32.35,0,0,0,3.94-.06,4.2,4.2,0,0,1,4.1,2.11c2.34,3.41,4.77,6.75,7.14,10.14.81,1.15,1.6,1.2,2.84.51,8.49-4.79,17.24-9.05,26.71-11.51a35.2,35.2,0,0,1,9.28-1c2.43,0,2.8.92,2.63,3.33a15.61,15.61,0,0,0,.08,3.55,3.72,3.72,0,0,1-2.38,4.4c-3.17,1.35-6.37,2.63-9.57,3.93-5.7,2.31-11.4,4.6-17.09,6.92C109.41,325.83,109.05,326.08,108.34,326.46Z"/><path class="cls-1" d="M307.89,236.93c3.68,3.74,4,6.14,1.4,11.06a37.05,37.05,0,0,1-9.35,11c-6.32,5.36-13.16,9.95-21.36,11.81a25.43,25.43,0,0,1-9.67.4c-6.88-1.17-10.72-7.77-9.17-14.84a31.22,31.22,0,0,1,7.79-14.4c6.39-7,14-11.92,23.53-13.47a24.19,24.19,0,0,1,14.36,1.66,13.56,13.56,0,0,1,2.14,1.19c2.58,1.81,2.67,2.58.7,5A5.63,5.63,0,0,0,307.89,236.93Zm-.7,3.88-.54-.34a16.2,16.2,0,0,1-2.47.74,16.49,16.49,0,0,1-2.63,0c-1.06,0-2.13-.09-3.19,0-11.18.64-19.26,6.34-25.19,15.49a20,20,0,0,0-1.32,3.33,44.63,44.63,0,0,0,5.11-.32,50.56,50.56,0,0,0,18.29-7.6,95.47,95.47,0,0,0,10-7.91C306.14,243.37,306.55,242,307.19,240.81Z"/><path class="cls-1" d="M190.47,179.36c2,2.18,3.84,4.12,5.61,6.14,2.77,3.16,5.55,6.32,8.18,9.59.62.77.69,2,1,3A10.91,10.91,0,0,1,202,198c-7.85-2.61-14.62-7.17-21.09-12.17-1.63-1.26-2.89-1.52-4.7-.54-3.19,1.74-6.47,3.32-9.76,4.88a10.68,10.68,0,0,1-2.44.51c0-.9-.43-2-.06-2.68a58.23,58.23,0,0,1,4.11-6.46,40.33,40.33,0,0,1,3.36-3.58c-.5-.57-.95-1.13-1.45-1.64-4.26-4.46-8.4-9-11.14-14.61a18.82,18.82,0,0,1-.77-1.72c-1.22-3.3-.87-4.07,2.3-5.5a16.35,16.35,0,0,0,2.43-1.41c2.13-1.44,3.58-1.51,5.39.31,2,2,3.76,4.2,5.56,6.37,2.41,2.9,4.81,5.8,7.11,8.78.94,1.22,1.67,1.15,2.94.41,6.67-3.88,13.41-7.63,20.13-11.41a22.46,22.46,0,0,1,2.06-.94c4-1.68,4.52-1.5,6.87,2.06a21.46,21.46,0,0,0,1.64,2.06c1.56,1.82,1.77,3.31.06,5a30.17,30.17,0,0,1-6.36,4.92c-5.13,2.76-10.45,5.17-15.69,7.72Z"/></g><path class="cls-1" d="M56.17,25.84V16.63H67.24v9.21Zm0,49.23V28.69H67.24V75.07Z"/><path class="cls-1" d="M87.47,75.56q-7.78,0-11-4T73.16,59.85V45.57a32.39,32.39,0,0,1,1.23-9.68,10.18,10.18,0,0,1,4.33-5.78q3.09-1.92,8.6-1.92a16.67,16.67,0,0,1,6.88,1.36,11.17,11.17,0,0,1,4.81,4A11.33,11.33,0,0,1,100.77,40v7.08H89.48V40.56A7,7,0,0,0,89,37.85a1.94,1.94,0,0,0-2-1.09c-1.81,0-2.72,1.28-2.72,3.86V63.1a5.47,5.47,0,0,0,.62,2.61,2.11,2.11,0,0,0,2,1.19,2,2,0,0,0,2-1.16,6,6,0,0,0,.57-2.7V55.25h11.23v8.1a12.09,12.09,0,0,1-1.72,6.57,11.2,11.2,0,0,1-4.71,4.19A15.55,15.55,0,0,1,87.47,75.56Z"/><path class="cls-1" d="M190.16,75.56a8.64,8.64,0,0,1-5.89-1.79,9.26,9.26,0,0,1-2.77-4.92,31,31,0,0,1-.74-7.08,24.28,24.28,0,0,1,.83-6.94,9.39,9.39,0,0,1,2.86-4.44A16.86,16.86,0,0,1,190,47.46l6.86-2.35V40.34q0-3.73-2.44-3.74c-1.49,0-2.23,1-2.23,3v2.78H181.47a5.29,5.29,0,0,1,0-.63V40.9q0-6.93,3.26-9.82T195,28.19a16,16,0,0,1,6.65,1.32,10.75,10.75,0,0,1,4.66,3.88,11.16,11.16,0,0,1,1.71,6.33V75.07h-11V69.56A8.58,8.58,0,0,1,194.4,74,6.44,6.44,0,0,1,190.16,75.56ZM194.52,67a1.84,1.84,0,0,0,1.85-1.15,6.16,6.16,0,0,0,.5-2.47V50.42a9.52,9.52,0,0,0-3.56,2.34,6,6,0,0,0-1.26,4.13v6Q192.05,67,194.52,67Z"/><path class="cls-1" d="M228.17,75.56q-7.78,0-11-4t-3.26-11.72V45.57a32.39,32.39,0,0,1,1.23-9.68,10.18,10.18,0,0,1,4.33-5.78q3.09-1.92,8.6-1.92a16.63,16.63,0,0,1,6.88,1.36,11.17,11.17,0,0,1,4.81,4A11.33,11.33,0,0,1,241.47,40v7.08H230.18V40.56a7,7,0,0,0-.46-2.71,1.94,1.94,0,0,0-2-1.09c-1.81,0-2.72,1.28-2.72,3.86V63.1a5.58,5.58,0,0,0,.62,2.61,2.11,2.11,0,0,0,2,1.19,2,2,0,0,0,2-1.16,5.9,5.9,0,0,0,.58-2.7V55.25h11.22v8.1a12.09,12.09,0,0,1-1.72,6.57A11.2,11.2,0,0,1,235,74.11,15.55,15.55,0,0,1,228.17,75.56Z"/><path class="cls-1" d="M375.38,75.56a14.66,14.66,0,0,1-7.88-1.85,10.28,10.28,0,0,1-4.21-5.35A24.89,24.89,0,0,1,362,60V41.3q0-6.46,3.71-9.78t10.21-3.33q13.35,0,13.36,13.11v3.37c0,4.08-.05,6.83-.13,8.23H373.09v9a17.61,17.61,0,0,0,.16,2.43,4.26,4.26,0,0,0,.69,2,2.32,2.32,0,0,0,3.91-.72,14.43,14.43,0,0,0,.44-3.91V57.16h11v2.63A25.44,25.44,0,0,1,388,68.5a9.74,9.74,0,0,1-4.33,5.28A16.4,16.4,0,0,1,375.38,75.56ZM373,47.39h5.26V41.15a7.84,7.84,0,0,0-.62-3.61,2,2,0,0,0-1.86-1.09,2.35,2.35,0,0,0-2.05,1,6.67,6.67,0,0,0-.73,3.65Z"/><path class="cls-1" d="M339.32,30.22l-1.06-1.7.25-.39c.95.34,1.91.64,2.83,1,1.82.79,3.64,1.61,5.43,2.47a21.65,21.65,0,0,1,2.85,1.63,1.52,1.52,0,0,1,.63,2.21c-.16.3.19,1,.5,1.4a25.15,25.15,0,0,1,5.73,11.38,14,14,0,0,1-3.05,12.09C348.2,66.58,342,71.66,334.28,74.43c-9.07,3.24-18-1.45-21-10.68-2.23-7-.64-13.44,3.17-19.39,5.11-8,12.22-13,21.87-14C338.61,30.35,338.88,30.29,339.32,30.22Zm.4,9.75c-8.29,2.1-14.09,6.84-16.68,15a11.92,11.92,0,0,0-.2,5.48c.74,4.07,4.68,6.63,8.32,5.48a41,41,0,0,0,17-10.7,7.39,7.39,0,0,0,2.07-5.48,19.53,19.53,0,0,0-2.78-9.07,1.59,1.59,0,0,0-1.1-.7C344.14,39.93,341.9,40,339.72,40Z"/><path class="cls-1" d="M41,39.82c2.59.28,4.87.44,7.12.77,5.15.77,10.31,1.55,15.44,2.49a17.28,17.28,0,0,1,4.66,1.74c.77.4,1.28,1.32,1.9,2A8,8,0,0,1,68,48.29,54.15,54.15,0,0,1,60.47,50q-12.61,1.64-25.26,3a2.85,2.85,0,0,0-2.63,1.9q-6.49,14.69-13,29.35a4.91,4.91,0,0,1-.39,1c-.39.52-.85,1-1.29,1.47a6.56,6.56,0,0,1-1.24-1.54C15,80.7,15.26,76.06,16,71.56c1-5.68,2.52-11.26,3.82-16.88.16-.66.36-1.32.6-2.22-1-.25-1.81-.49-2.67-.67-5.39-1.12-10.41-3-14.56-6.8a13.8,13.8,0,0,1-1.95-2.16c-2-2.69-1.71-3.85,1-5.78a35.94,35.94,0,0,0,3.44-2.71,4.66,4.66,0,0,1,5-.9c4.35,1.44,8.75,2.75,13.12,4.14,1.48.47,2.22,0,2.83-1.46C31,26.19,35.83,16.55,42.52,8A39.85,39.85,0,0,1,50.05.93C52.21-.68,53.14-.14,54.6,2.1a19.22,19.22,0,0,0,2.46,3.08,4.11,4.11,0,0,1,.86,5.47C56,14,54.08,17.26,52.13,20.55q-5.19,8.79-10.41,17.59C41.48,38.55,41.33,39,41,39.82Z"/><path class="cls-1" d="M167.75,39.82c2.59.28,4.87.44,7.11.77,5.16.77,10.32,1.55,15.44,2.49A17.22,17.22,0,0,1,195,44.82c.77.4,1.27,1.32,1.9,2a8,8,0,0,1-2.11,1.47A54.15,54.15,0,0,1,187.25,50Q174.64,51.68,162,53a2.85,2.85,0,0,0-2.63,1.9q-6.5,14.69-13,29.35a4.91,4.91,0,0,1-.39,1c-.39.52-.86,1-1.29,1.47a6.56,6.56,0,0,1-1.24-1.54c-1.69-4.46-1.39-9.1-.61-13.6,1-5.68,2.52-11.26,3.82-16.88.16-.66.35-1.32.6-2.22-1-.25-1.82-.49-2.67-.67-5.39-1.12-10.41-3-14.56-6.8a13.32,13.32,0,0,1-1.95-2.16c-2-2.69-1.71-3.85,1-5.78a35.94,35.94,0,0,0,3.44-2.71,4.68,4.68,0,0,1,5-.9c4.35,1.44,8.75,2.75,13.11,4.14,1.49.47,2.22,0,2.84-1.46,4.26-9.93,9.12-19.57,15.81-28.11A40.1,40.1,0,0,1,176.82.93c2.17-1.61,3.1-1.07,4.56,1.17a19.22,19.22,0,0,0,2.46,3.08,4.11,4.11,0,0,1,.86,5.47c-1.89,3.32-3.84,6.61-5.79,9.9q-5.19,8.79-10.41,17.59C168.26,38.55,168.11,39,167.75,39.82Z"/><path class="cls-1" d="M305.69,39.82c2.6.28,4.87.44,7.12.77,5.16.77,10.31,1.55,15.44,2.49a17.28,17.28,0,0,1,4.66,1.74c.78.4,1.28,1.32,1.9,2a7.89,7.89,0,0,1-2.11,1.47A54.35,54.35,0,0,1,325.2,50q-12.61,1.64-25.27,3a2.82,2.82,0,0,0-2.62,1.9q-6.49,14.69-13,29.35a4.91,4.91,0,0,1-.39,1c-.39.52-.85,1-1.28,1.47a6.36,6.36,0,0,1-1.25-1.54c-1.68-4.46-1.39-9.1-.6-13.6,1-5.68,2.51-11.26,3.82-16.88.15-.66.35-1.32.59-2.22-1-.25-1.81-.49-2.66-.67-5.39-1.12-10.41-3-14.57-6.8A13.8,13.8,0,0,1,266,42.83c-1.95-2.69-1.71-3.85,1-5.78a35.94,35.94,0,0,0,3.44-2.71,4.66,4.66,0,0,1,5-.9c4.36,1.44,8.75,2.75,13.12,4.14,1.48.47,2.22,0,2.84-1.46,4.26-9.93,9.11-19.57,15.81-28.11A39.49,39.49,0,0,1,314.77.93c2.16-1.61,3.09-1.07,4.56,1.17a18.18,18.18,0,0,0,2.46,3.08,4.12,4.12,0,0,1,.86,5.47c-1.89,3.32-3.85,6.61-5.79,9.9q-5.21,8.79-10.41,17.59C306.21,38.55,306.05,39,305.69,39.82Z"/></svg>