<?xml version="1.0" standalone="no"?>
<!DOCTYPE svg PUBLIC "-//W3C//DTD SVG 20010904//EN"
 "http://www.w3.org/TR/2001/REC-SVG-20010904/DTD/svg10.dtd">
<svg version="1.0" xmlns="http://www.w3.org/2000/svg"
 width="654.000000pt" height="74.000000pt" viewBox="0 0 654.000000 74.000000"
 preserveAspectRatio="xMidYMid meet">
<metadata>
Created by potrace 1.16, written by Peter Selinger 2001-2019
</metadata>
<g transform="translate(0.000000,74.000000) scale(0.100000,-0.100000)"
fill="#000000" stroke="none">
<path d="M208 622 c-60 -9 -108 -19 -108 -23 0 -4 13 -10 30 -14 36 -8 36 -2
15 -221 -14 -145 -18 -161 -40 -180 l-24 -22 92 -6 c51 -4 115 -9 142 -12 l50
-5 -27 21 c-25 20 -28 28 -28 85 0 68 6 75 58 75 26 0 27 -1 24 -52 -3 -43 -9
-58 -30 -76 l-27 -24 139 6 c128 6 137 5 125 -11 -13 -15 -10 -15 31 -10 25 3
93 9 153 13 59 3 107 9 107 13 0 3 -9 12 -20 18 -17 11 -18 17 -8 45 14 44 16
45 70 52 l47 7 6 -35 c6 -29 2 -42 -24 -80 -17 -24 -31 -47 -31 -49 0 -3 55
13 123 34 67 21 124 39 127 39 3 0 -8 -10 -24 -23 l-29 -23 179 -16 c99 -9
180 -15 182 -13 2 1 -16 13 -39 26 l-43 24 -33 124 c-18 69 -31 126 -29 128 1
2 48 -61 103 -139 110 -158 105 -154 212 -143 l66 7 -32 16 c-40 19 -39 12
-12 219 21 154 23 162 48 174 26 12 26 12 -19 19 -25 4 -88 11 -140 15 -92 6
-94 6 -70 -11 14 -9 27 -19 28 -20 4 -3 30 -267 27 -272 -1 -1 -17 30 -35 70
-19 40 -53 114 -76 164 l-42 91 -123 -18 c-68 -10 -131 -19 -139 -20 -8 0 4
-10 28 -21 38 -17 43 -22 38 -46 -3 -15 -8 -87 -12 -159 -3 -73 -9 -133 -13
-133 -25 0 -85 114 -177 336 -3 6 14 19 38 29 24 10 36 20 28 21 -36 7 -360
10 -360 4 0 -4 11 -12 24 -19 l24 -13 -48 -185 c-26 -102 -52 -189 -57 -194
-5 -5 -16 -4 -25 3 -13 10 -19 45 -27 154 -16 208 -17 202 24 221 19 9 32 20
29 25 -3 4 -71 8 -151 8 l-146 0 21 -23 c19 -20 20 -28 12 -87 -5 -36 -10 -70
-10 -77 0 -9 -9 -9 -37 1 -33 11 -39 18 -45 52 -13 74 -9 113 12 126 20 13 27
29 13 27 -5 -1 -56 -9 -115 -17z"/>
<path d="M1912 614 c-73 -19 -103 -36 -145 -83 -91 -101 -63 -259 61 -341 62
-41 113 -53 207 -48 62 3 93 11 135 32 30 15 58 31 63 35 4 4 2 42 -4 85 -10
78 -10 78 17 107 21 21 24 29 12 29 -9 0 -62 5 -118 11 -86 8 -106 14 -121 32
-18 22 -18 21 -19 -44 0 -37 3 -80 6 -97 6 -29 6 -30 25 -11 10 10 28 19 39
19 17 0 19 -4 14 -28 -13 -52 -23 -63 -52 -56 -70 16 -117 81 -108 152 19 148
164 179 290 63 l29 -26 -6 25 c-3 14 -9 53 -13 88 -3 34 -11 62 -15 62 -5 0
-9 -7 -9 -16 0 -11 -5 -14 -17 -9 -90 37 -180 44 -271 19z"/>
<path d="M2411 610 c-79 -11 -146 -21 -149 -24 -3 -3 9 -11 26 -17 38 -13 39
-21 17 -214 -8 -71 -15 -136 -15 -143 0 -7 -11 -18 -25 -24 -14 -6 -25 -14
-25 -18 0 -6 342 -40 348 -34 2 1 -18 14 -45 27 l-48 25 -21 146 c-11 80 -19
146 -17 146 1 0 26 -49 54 -110 29 -60 55 -107 59 -105 4 2 33 47 64 100 31
52 58 95 60 95 1 0 -9 -55 -24 -122 -25 -118 -27 -123 -61 -143 -40 -24 -57
-20 160 -34 126 -8 384 2 400 16 3 2 -5 10 -17 18 -18 14 -20 19 -10 48 14 43
16 44 70 51 l47 7 6 -35 c6 -29 2 -42 -24 -80 -17 -24 -31 -47 -31 -49 0 -3
55 13 123 34 67 21 127 39 132 39 6 0 -3 -10 -19 -23 l-29 -23 179 -16 c99 -9
180 -15 182 -13 2 1 -16 13 -39 26 l-43 24 -33 124 c-18 69 -31 126 -29 128 1
2 48 -61 103 -139 110 -158 105 -154 212 -143 l66 7 -32 16 c-40 19 -39 12
-12 219 21 154 23 162 48 174 26 12 26 12 -19 19 -25 4 -88 11 -140 15 -92 6
-94 6 -70 -11 14 -9 27 -19 28 -20 4 -3 30 -267 27 -272 -1 -1 -17 30 -35 70
-19 40 -53 114 -76 164 l-42 91 -123 -18 c-68 -10 -131 -19 -139 -20 -8 0 4
-10 28 -21 38 -17 43 -22 38 -46 -3 -15 -8 -87 -12 -159 -6 -136 -11 -148 -46
-120 -13 9 -100 193 -154 323 -3 6 14 19 38 29 24 10 36 20 28 21 -36 7 -360
10 -360 4 0 -4 11 -12 24 -19 l24 -13 -48 -185 c-51 -197 -63 -223 -94 -200
-16 11 -22 43 -36 178 -10 90 -15 167 -11 171 4 4 24 14 46 21 l40 14 -90 7
c-49 3 -118 8 -152 11 l-61 4 -12 -52 c-20 -82 -25 -83 -44 -2 -10 41 -18 75
-19 74 -1 -1 -67 -9 -146 -19z"/>
<path d="M4442 614 c-73 -19 -103 -36 -145 -83 -91 -101 -63 -259 61 -341 62
-41 113 -53 207 -48 62 3 93 11 135 32 30 15 58 31 63 35 4 4 2 42 -4 85 -10
78 -10 78 17 107 21 21 24 29 12 29 -9 0 -62 5 -118 11 -86 8 -106 14 -121 32
-18 22 -18 21 -19 -44 0 -37 3 -80 6 -97 6 -29 6 -30 25 -11 10 10 28 19 39
19 17 0 19 -4 14 -28 -13 -52 -23 -63 -52 -56 -70 16 -117 81 -108 152 19 148
164 179 290 63 l29 -26 -6 25 c-3 14 -9 53 -13 88 -3 34 -11 62 -15 62 -5 0
-9 -7 -9 -16 0 -11 -5 -14 -17 -9 -90 37 -180 44 -271 19z"/>
<path d="M4840 620 c0 -4 11 -12 24 -19 l24 -13 -48 -186 c-47 -179 -50 -187
-87 -219 l-38 -34 45 5 c25 3 93 8 153 12 59 3 107 9 107 13 0 3 -9 12 -20 18
-17 11 -18 17 -8 45 14 44 16 45 70 52 l47 7 6 -35 c6 -29 2 -42 -24 -80 -17
-24 -31 -47 -31 -49 0 -3 57 13 126 35 118 37 183 47 122 18 -16 -7 -28 -16
-28 -20 0 -6 342 -40 348 -34 2 1 -18 14 -45 27 l-48 25 -21 146 c-11 80 -19
146 -17 146 1 0 26 -49 54 -110 29 -60 55 -107 59 -105 4 2 33 47 64 100 31
52 58 95 60 95 1 0 -9 -55 -24 -122 -25 -118 -27 -123 -61 -143 l-34 -20 85
-7 c149 -11 720 -31 726 -25 7 6 35 200 30 204 -2 2 -22 -21 -45 -52 -23 -30
-49 -55 -59 -55 -30 1 -144 19 -149 24 -3 3 2 25 12 49 l16 44 45 -7 c24 -4
46 -9 47 -11 2 -2 11 -15 20 -29 l17 -24 0 44 c0 25 -3 76 -7 114 l-6 69 -21
-25 c-17 -20 -103 -54 -113 -45 -1 2 3 22 9 45 l10 42 72 0 c64 0 75 -3 96
-25 13 -14 27 -25 31 -25 5 0 -19 137 -26 148 -1 1 -98 -5 -216 -13 -218 -16
-428 -20 -485 -9 -31 6 -32 5 -44 -48 -20 -83 -25 -84 -44 -5 l-17 73 -117
-13 c-64 -7 -133 -17 -152 -22 l-35 -8 33 -13 c29 -11 32 -16 32 -53 -1 -61
-26 -277 -34 -284 -3 -3 -16 -2 -28 4 -17 7 -42 54 -93 168 -39 87 -71 161
-73 165 -2 4 16 16 40 25 24 10 36 20 28 21 -36 7 -360 10 -360 4z m1146 -63
c2 -2 13 -66 24 -143 11 -76 22 -153 25 -170 5 -29 2 -33 -26 -43 -41 -14 -51
-14 -74 2 -15 11 -21 43 -35 178 -16 152 -16 165 -1 177 14 12 75 11 87 -1z"/>
</g>
</svg>
