<?xml version="1.0" standalone="no"?>
<!DOCTYPE svg PUBLIC "-//W3C//DTD SVG 20010904//EN"
 "http://www.w3.org/TR/2001/REC-SVG-20010904/DTD/svg10.dtd">
<svg version="1.0" xmlns="http://www.w3.org/2000/svg"
 width="166.000000pt" height="217.000000pt" viewBox="0 0 166.000000 217.000000"
 preserveAspectRatio="xMidYMid meet">
<metadata>
Created by potrace 1.16, written by Peter Selinger 2001-2019
</metadata>
<g transform="translate(0.000000,217.000000) scale(0.100000,-0.100000)"
fill="#000000" stroke="none">
<path d="M352 2078 c-9 -9 -12 -238 -12 -970 l0 -957 -137 -3 -138 -3 0 -25 0
-25 742 -3 742 -2 6 21 c4 12 3 25 -2 30 -5 5 -262 10 -578 11 l-570 3 0 935
0 935 405 0 405 0 3 -107 3 -107 -38 -16 c-163 -68 -163 -282 0 -350 30 -12
37 -20 37 -43 0 -22 -26 -53 -125 -152 -89 -89 -125 -131 -123 -145 6 -45 42
-27 138 70 52 52 98 95 102 95 5 0 8 -79 8 -175 l0 -175 -126 -189 c-126 -189
-140 -223 -98 -229 17 -2 42 29 134 168 62 93 116 170 119 170 3 -1 56 -76
116 -168 82 -124 116 -168 133 -170 50 -7 35 28 -92 218 l-126 190 0 182 0
182 104 -103 c93 -92 107 -101 125 -91 12 6 21 16 21 23 0 7 -56 68 -125 137
-113 113 -125 128 -125 160 1 32 5 37 48 57 124 58 140 233 29 314 -22 16 -48
29 -59 29 -17 0 -18 10 -18 133 0 90 -4 137 -12 145 -17 17 -899 17 -916 0z
m961 -350 c28 -14 57 -69 57 -106 0 -45 -24 -89 -60 -107 -129 -67 -251 92
-150 194 41 41 98 48 153 19z"/>
</g>
</svg>
