<?xml version="1.0" standalone="no"?>
<!DOCTYPE svg PUBLIC "-//W3C//DTD SVG 20010904//EN"
 "http://www.w3.org/TR/2001/REC-SVG-20010904/DTD/svg10.dtd">
<svg version="1.0" xmlns="http://www.w3.org/2000/svg"
 width="366.000000pt" height="398.000000pt" viewBox="0 0 366.000000 398.000000"
 preserveAspectRatio="xMidYMid meet">
<metadata>
Created by potrace 1.16, written by Peter Selinger 2001-2019
</metadata>
<g transform="translate(0.000000,398.000000) scale(0.100000,-0.100000)"
fill="#000000" stroke="none">
<path d="M50 1985 l0 -1935 1780 0 1780 0 0 200 0 200 -1670 0 -1670 0 0 1655
0 1655 1050 0 1050 0 -1 -197 0 -198 -41 -30 c-64 -46 -93 -112 -93 -210 0
-70 4 -87 30 -134 30 -55 94 -111 124 -111 9 1 0 9 -20 20 -147 77 -172 299
-47 417 69 65 161 68 229 6 79 -71 106 -171 75 -277 -27 -92 -107 -166 -181
-166 -15 0 -33 -7 -42 -15 -12 -13 -18 -13 -31 -3 -35 29 -102 -12 -213 -130
-157 -166 -296 -412 -274 -482 22 -68 172 43 313 230 31 41 59 79 63 84 4 5 3
-9 -2 -30 -20 -83 -22 -304 -5 -423 46 -310 152 -453 269 -361 78 61 147 322
147 555 0 237 -69 487 -151 547 l-27 21 46 31 c33 22 55 48 75 86 60 119 43
246 -45 332 l-48 47 0 275 0 276 -1235 0 -1235 0 0 -1935z m2465 853 c152
-132 192 -652 75 -961 -28 -75 -95 -147 -135 -147 -40 0 -107 72 -135 147 -47
123 -64 236 -64 423 -1 210 8 256 75 386 27 54 49 107 49 120 0 27 44 64 76
64 13 0 39 -14 59 -32z m-148 -20 c-14 -102 -154 -323 -297 -468 -84 -85 -135
-118 -165 -106 -21 8 -19 28 11 104 84 208 340 512 432 512 23 0 24 -2 19 -42z"/>
</g>
</svg>
