<svg id="Capa_1" data-name="Capa 1" xmlns="http://www.w3.org/2000/svg" viewBox="0 0 399.45 255.3"><defs><style>.cls-1{fill:#fff;}</style></defs><path class="cls-1" d="M187.52,130.65c-3.42,2.7-4.7,5.41-4.7,7.12,0,2.56,2.42,5.41,8.83,5.41,5.27,0,11.25-.14,15.95-.14,9.11,0,20.78,3,20.78,17.08,0,14.81-17.51,28.76-36.45,28.76-16.08,0-24.77-9.4-25.05-17.8a11.25,11.25,0,0,1,3.55-8.11,132.76,132.76,0,0,1,11.68-10.25A18.57,18.57,0,0,1,171.43,145a13,13,0,0,1-1.71-6.12,30.16,30.16,0,0,0,13.1-9.83Zm6.83,1.42c-13.24,0-24.2-8.11-24.2-21.5,0-16.23,14.52-23.77,25.63-23.77a29.27,29.27,0,0,1,13.67,3.55,95.52,95.52,0,0,0,19.08-2.13l.85,1.28c-.85,2.28-3.13,6.27-5.27,7.55-2.13,0-6.83-.57-8.83-.72a21.93,21.93,0,0,1,4.13,13C219.41,124.81,206.6,132.07,194.35,132.07Zm3.28,21.07c-7,0-10.11.86-12.67,3-4,3.28-6.84,7.55-6.84,11.68,0,7.83,8.12,13.67,19.08,13.67,13.53,0,21.22-7,21.22-16.09,0-4.84-2.28-8.69-6.27-10.39C208.59,153.43,203.61,153.14,197.63,153.14Zm-3.28-61.79c-6.4,0-12.1,5.84-12.1,17.09s5.7,19.08,13.53,19.08c6.26-.29,11.82-5.56,11.82-17.09C207.6,99.33,202.33,91.35,194.35,91.35Z"/><path class="cls-1" d="M61.29,78.42c-7.31.7-8,1.14-8,8.54v35.31c0,7.4.79,7.66,8,8.45v2.47H37.69v-2.47c7.31-.88,8-1.05,8-8.45V104.66H15.59v17.61c0,7.31.7,7.57,7.92,8.45v2.47H0v-2.47c7.13-.79,7.92-1.05,7.92-8.45V87c0-7.4-.79-7.84-7.92-8.54V76H23.51v2.47c-7,.61-7.92,1.23-7.92,8.54v14H45.7V87c0-7.31-1-7.93-8-8.54V76h23.6Z"/><path class="cls-1" d="M96.77,134.24a6.44,6.44,0,0,1-4.14-1.67,8.29,8.29,0,0,1-2.11-4C87,131,82.68,134.24,80,134.24a10.8,10.8,0,0,1-10.74-10.83c0-4.31,2.38-7.13,7.22-8.8,5.37-1.85,12-4.14,13.91-5.73v-1.76c0-6.25-3.17-9.86-7.75-9.86a5.11,5.11,0,0,0-4.14,2c-1,1.23-1.58,3.17-2.37,5.72a2.45,2.45,0,0,1-2.56,2,4.23,4.23,0,0,1-3.87-3.87c0-1.23,1.14-2.29,2.9-3.52,2.56-1.85,7.67-5.11,12.69-6.17a12.18,12.18,0,0,1,7.39,2.38c3.08,2.64,4.49,5.64,4.49,10.22v17c0,4,1.5,5.28,3.09,5.28a7.12,7.12,0,0,0,3.17-1l.88,2.46ZM90.34,112c-1.93,1-6.16,2.81-8.19,3.69-3.34,1.5-5.37,3.17-5.37,6.43a6.4,6.4,0,0,0,6.34,6.78,11.7,11.7,0,0,0,7.22-3.17Z"/><path class="cls-1" d="M135.87,133.19v-2.47c5.1-.53,5.63-1.14,5.63-7.13V109.06c0-6.16-2.2-10.3-8-10.3-3.61,0-7.05,2.11-9.78,4.58v20.6c0,6.08.53,6.25,5.73,6.78v2.47h-19v-2.47c5.81-.61,6.34-1,6.34-6.78V105.8c0-5.72-.62-6-5.38-6.78V96.73a49.88,49.88,0,0,0,12.33-3.52v7c1.76-1.24,3.7-2.56,6-4,2.47-1.59,4.76-2.65,7.31-2.65,7,0,11.45,5.2,11.45,13.74v16.73c0,6,.53,6.25,5.63,6.78v2.47Z"/><g id="f9YZaj"><path class="cls-1" d="M68.36,86.2V29.14H63.59c-9.28,0-18.56-.12-27.83.06-3.44.07-4.51-1-4.16-5a136.48,136.48,0,0,0-.06-19.29C31.33,1,32.73,0,36.26,0c21.7.12,43.4.06,65.09.06H241.81c5.62,0,5.63,0,5.63,5.55,0,6.57-.13,13.14.06,19.7.08,3-.94,3.93-3.92,3.89l-89.9.06a9.33,9.33,0,0,0-5.84,2.47Q124,55.16,100.63,79c-1.61,1.65-2.38,4.78-2.38,7.23m26-56.73H98.47V55.31Z"/></g><path class="cls-1" d="M287,133.19v-2.47c5.19-.53,5.81-.88,5.81-7V109c0-6.25-2.11-10.21-7.57-10.21-3.35,0-6.43,1.85-9.78,4.58a35.24,35.24,0,0,1,.27,3.78v17.09c0,5.54.79,6,5.63,6.51v2.47H262.56v-2.47c5.46-.53,6.25-.88,6.25-6.69V108.88c0-6.51-2-10.12-7.4-10.12-3.52,0-7,2.37-9.68,4.58V124c0,5.81.61,6.16,5.63,6.69v2.47H238.43v-2.47c5.81-.53,6.34-.88,6.34-6.69V105.8c0-5.63-.35-6-5.28-6.87v-2.2a47,47,0,0,0,12.24-3.52v7.13a63.26,63.26,0,0,1,6.51-4.58,12,12,0,0,1,7-2.29c4.23,0,7.84,2.65,9.6,7.22,2.46-1.93,4.75-3.43,7-4.93a13.35,13.35,0,0,1,6.95-2.29c6.87,0,11.1,4.93,11.1,13.56v17c0,5.9.53,6.16,5.55,6.69v2.47Z"/><path class="cls-1" d="M341.54,134.24a6.44,6.44,0,0,1-4.14-1.67,8.29,8.29,0,0,1-2.11-4c-3.52,2.38-7.84,5.63-10.57,5.63A10.8,10.8,0,0,1,314,123.41c0-4.31,2.38-7.13,7.22-8.8,5.37-1.85,12-4.14,13.91-5.73v-1.76c0-6.25-3.17-9.86-7.75-9.86a5.13,5.13,0,0,0-4.14,2c-1,1.23-1.58,3.17-2.37,5.72a2.45,2.45,0,0,1-2.56,2,4.23,4.23,0,0,1-3.87-3.87c0-1.23,1.14-2.29,2.9-3.52,2.56-1.85,7.67-5.11,12.68-6.17a12.19,12.19,0,0,1,7.4,2.38c3.08,2.64,4.49,5.64,4.49,10.22v17c0,4,1.5,5.28,3.08,5.28a7,7,0,0,0,3.17-1l.89,2.46ZM335.11,112c-1.94,1-6.16,2.81-8.19,3.69-3.34,1.5-5.37,3.17-5.37,6.43a6.4,6.4,0,0,0,6.34,6.78,11.7,11.7,0,0,0,7.22-3.17Z"/><path class="cls-1" d="M380.64,133.19v-2.47c5.1-.53,5.63-1.14,5.63-7.13V109.06c0-6.16-2.2-10.3-8-10.3-3.61,0-7.05,2.11-9.78,4.58v20.6c0,6.08.53,6.25,5.73,6.78v2.47h-19v-2.47c5.81-.61,6.34-1,6.34-6.78V105.8c0-5.72-.62-6-5.37-6.78V96.73a49.8,49.8,0,0,0,12.32-3.52v7c1.76-1.24,3.7-2.56,6-4,2.47-1.59,4.76-2.65,7.31-2.65,7.05,0,11.45,5.2,11.45,13.74v16.73c0,6,.53,6.25,5.63,6.78v2.47Z"/><path class="cls-1" d="M193.08,51V29.26h6.22c0,2.11,0,19,0,21.08s0,2.19,2.15,2.73c.62.15,1.25.3,1.86.5a3.09,3.09,0,0,1-1.63,6Q195.49,58,189.3,56.45a3.12,3.12,0,1,1,1.56-6Z"/><path class="cls-1" d="M190.14,61.14l2.88.71c3.41.86,6.83,1.69,10.23,2.59a3,3,0,0,1,2.25,3.08,3.06,3.06,0,0,1-2.59,2.92,5,5,0,0,1-1.81-.16c-3.92-1-7.83-2-11.74-2.93a3.14,3.14,0,0,1-2.56-3.59A3.26,3.26,0,0,1,190.14,61.14Z"/><path class="cls-1" d="M190.14,72l2.88.72c3.41.86,6.83,1.69,10.23,2.58a3,3,0,0,1,2.25,3.09,3,3,0,0,1-2.59,2.91,4.63,4.63,0,0,1-1.81-.16c-3.92-1-7.83-1.94-11.74-2.92a3.14,3.14,0,0,1-2.56-3.59A3.27,3.27,0,0,1,190.14,72Z"/><g id="SrOiRR"><path class="cls-1" d="M191.5,47.68l-1.06.07c-3.19.27-3.19.27-6.41-2.08-1.76-1.3-3.71-2.23-4.63-3a2.8,2.8,0,0,1-.8-3.78,2.74,2.74,0,0,1,3.7-1.11A21.79,21.79,0,0,1,191.5,47.68Z"/></g><path class="cls-1" d="M68.36,142.2H98.47a0,0,0,0,1,0,0V248.75a6.55,6.55,0,0,1-6.55,6.55h-17a6.55,6.55,0,0,1-6.55-6.55V142.2A0,0,0,0,1,68.36,142.2Z"/></svg>