<?xml version="1.0" standalone="no"?>
<!DOCTYPE svg PUBLIC "-//W3C//DTD SVG 20010904//EN"
 "http://www.w3.org/TR/2001/REC-SVG-20010904/DTD/svg10.dtd">
<svg version="1.0" xmlns="http://www.w3.org/2000/svg"
 width="366.000000pt" height="398.000000pt" viewBox="0 0 366.000000 398.000000"
 preserveAspectRatio="xMidYMid meet">
<metadata>
Created by potrace 1.16, written by Peter Selinger 2001-2019
</metadata>
<g transform="translate(0.000000,398.000000) scale(0.100000,-0.100000)"
fill="#000000" stroke="none">
<path d="M50 1985 l0 -1935 1780 0 1780 0 0 200 0 200 -1670 0 -1670 0 0 1655
0 1655 1050 0 1050 0 -1 -197 0 -198 -41 -30 c-64 -46 -93 -112 -93 -210 0
-70 4 -87 30 -134 30 -55 94 -111 124 -111 9 1 0 9 -20 20 -147 77 -172 299
-47 417 69 65 161 68 229 6 79 -71 106 -171 75 -277 -27 -93 -107 -166 -182
-166 -49 0 -116 -89 -150 -199 -69 -223 -69 -538 1 -760 72 -226 198 -266 285
-88 74 152 107 414 80 637 -22 179 -80 338 -141 382 l-27 21 46 31 c33 22 55
48 75 86 60 119 43 246 -45 332 l-48 47 0 275 0 276 -1235 0 -1235 0 0 -1935z
m2465 853 c152 -132 192 -652 75 -961 -28 -75 -95 -147 -135 -147 -40 0 -107
72 -135 147 -48 126 -64 235 -64 428 0 147 4 197 21 270 33 139 61 205 108
253 52 52 81 54 130 10z"/>
</g>
</svg>
