<?xml version="1.0" standalone="no"?>
<!DOCTYPE svg PUBLIC "-//W3C//DTD SVG 20010904//EN"
 "http://www.w3.org/TR/2001/REC-SVG-20010904/DTD/svg10.dtd">
<svg version="1.0" xmlns="http://www.w3.org/2000/svg"
 width="366.000000pt" height="398.000000pt" viewBox="0 0 366.000000 398.000000"
 preserveAspectRatio="xMidYMid meet">
<metadata>
Created by potrace 1.16, written by Peter Selinger 2001-2019
</metadata>
<g transform="translate(0.000000,398.000000) scale(0.100000,-0.100000)"
fill="#000000" stroke="none">
<path d="M50 1985 l0 -1935 1780 0 1780 0 0 200 0 200 -1670 0 -1670 0 0 1655
0 1655 1050 0 1050 0 -1 -197 0 -198 -41 -30 c-64 -46 -93 -112 -93 -210 0
-70 4 -87 30 -134 30 -55 94 -111 124 -111 9 1 0 9 -20 20 -147 77 -172 299
-47 417 40 38 103 58 153 49 44 -9 109 -65 137 -119 46 -91 29 -223 -39 -298
-44 -48 -61 -58 -122 -70 l-46 -8 49 3 c67 5 123 46 159 117 60 117 43 245
-45 331 l-48 47 0 275 0 276 -1235 0 -1235 0 0 -1935z"/>
</g>
</svg>
