<?xml version="1.0" standalone="no"?>
<!DOCTYPE svg PUBLIC "-//W3C//DTD SVG 20010904//EN"
 "http://www.w3.org/TR/2001/REC-SVG-20010904/DTD/svg10.dtd">
<svg version="1.0" xmlns="http://www.w3.org/2000/svg"
 width="366.000000pt" height="398.000000pt" viewBox="0 0 366.000000 398.000000"
 preserveAspectRatio="xMidYMid meet">

<g transform="translate(0.000000,398.000000) scale(0.100000,-0.100000)"
fill="#000000" stroke="none">
<path d="M50 1985 l0 -1935 1780 0 1780 0 0 200 0 200 -1670 0 -1670 0 0 1655
0 1655 1050 0 1050 0 -1 -197 0 -198 -41 -30 c-64 -46 -93 -112 -93 -210 0
-70 4 -87 30 -134 30 -55 94 -111 124 -111 9 1 0 9 -20 20 -147 77 -172 299
-47 417 69 65 161 68 229 6 79 -71 106 -171 75 -277 -27 -92 -107 -166 -181
-166 -15 0 -33 -7 -42 -15 -12 -13 -18 -13 -31 -3 -35 29 -102 -12 -213 -130
-157 -166 -296 -412 -274 -482 22 -68 172 43 313 230 31 41 59 79 63 84 4 4 2
-11 -4 -35 -6 -24 -11 -125 -11 -224 0 -198 17 -311 67 -435 l26 -63 -47 -52
c-118 -129 -274 -531 -289 -745 -15 -211 91 -162 221 104 98 199 175 452 176
574 l0 42 37 -6 c55 -8 100 25 141 106 66 132 100 344 87 550 -4 69 -8 136 -9
150 -1 14 -20 63 -43 110 -52 105 -83 214 -66 231 39 39 180 -105 303 -307 92
-151 145 -296 121 -333 -24 -38 -141 68 -248 226 -31 46 -59 81 -61 78 -15
-14 158 -233 225 -287 88 -70 127 -30 87 89 -89 268 -403 648 -439 533 -5 -16
-10 -18 -26 -9 -18 9 -16 13 28 42 133 90 149 303 31 419 l-48 47 0 275 0 276
-1235 0 -1235 0 0 -1935z m2452 866 c13 -11 30 -39 37 -63 7 -24 32 -86 56
-138 35 -76 47 -114 56 -190 22 -179 -5 -435 -61 -583 -26 -68 -95 -147 -129
-147 -33 0 -58 16 -65 43 -3 13 -16 29 -30 35 -30 13 -60 88 -89 222 -17 76
-21 130 -21 270 -1 210 8 256 75 386 27 54 49 107 49 120 0 27 43 64 75 64 12
0 33 -9 47 -19z m-135 -33 c-14 -102 -154 -323 -297 -468 -84 -85 -135 -118
-165 -106 -21 8 -19 28 11 104 84 208 340 512 432 512 23 0 24 -2 19 -42z m17
-1044 c3 -9 6 -37 6 -64 0 -265 -281 -893 -363 -811 -35 36 5 279 80 481 63
169 176 373 221 399 25 15 49 13 56 -5z"/>
</g>
</svg>
