<?xml version="1.0" standalone="no"?>
<!DOCTYPE svg PUBLIC "-//W3C//DTD SVG 20010904//EN"
 "http://www.w3.org/TR/2001/REC-SVG-20010904/DTD/svg10.dtd">
<svg version="1.0" xmlns="http://www.w3.org/2000/svg"
 width="301.000000pt" height="299.000000pt" viewBox="0 0 301.000000 299.000000"
 preserveAspectRatio="xMidYMid meet">
<metadata>
Created by potrace 1.16, written by Peter Selinger 2001-2019
</metadata>
<g transform="translate(0.000000,299.000000) scale(0.100000,-0.100000)"
fill="#000000" stroke="none">
<path d="M1470 2679 c-232 -25 -434 -202 -495 -434 -18 -69 -20 -201 -4 -277
40 -192 206 -369 404 -430 97 -30 234 -30 330 0 249 77 419 303 418 557 0 170
-51 294 -173 416 -131 132 -291 188 -480 168z m20 -345 c13 -32 13 -165 1
-197 -13 -32 -39 -41 -67 -22 -23 15 -24 21 -24 118 0 112 6 127 52 127 21 0
31 -6 38 -26z m110 12 c20 -25 1 -222 -24 -238 -16 -11 -23 -10 -40 8 -20 20
-23 213 -4 232 16 16 53 15 68 -2z m-232 -28 c8 -8 12 -45 12 -100 0 -82 -2
-89 -24 -103 -19 -13 -29 -14 -45 -5 -23 12 -23 9 -26 105 -3 91 6 115 43 115
15 0 33 -5 40 -12z m432 -148 c17 -17 20 -33 20 -112 0 -112 -23 -172 -90
-231 -57 -52 -97 -67 -178 -67 -141 0 -240 87 -263 231 -13 78 -6 101 27 93
15 -4 34 0 49 10 22 14 26 14 54 -2 29 -16 33 -16 59 -1 25 14 31 14 48 2 11
-8 30 -12 46 -9 33 6 128 -4 128 -14 0 -4 -17 -11 -37 -15 -47 -8 -99 -40
-120 -71 -25 -39 -7 -39 31 0 32 31 68 47 131 58 13 2 21 12 23 31 3 26 1 27
-41 27 -57 0 -86 27 -69 65 11 23 16 25 87 25 62 0 79 -4 95 -20z"/>
<path d="M2150 1470 c-218 -38 -398 -194 -467 -405 -33 -102 -37 -247 -9 -340
61 -206 225 -368 422 -419 78 -20 222 -21 299 -1 109 28 184 72 271 159 124
124 174 246 174 421 0 106 -16 173 -65 273 -109 219 -380 355 -625 312z m260
-50 c187 -55 336 -213 386 -410 34 -133 4 -310 -72 -431 -44 -71 -143 -161
-214 -196 -230 -113 -481 -74 -655 101 -115 117 -165 235 -165 396 0 156 47
274 155 389 147 156 356 211 565 151z"/>
<path d="M2216 1289 c-25 -19 -26 -25 -26 -111 l0 -90 -28 7 c-21 4 -36 0 -56
-16 -18 -14 -34 -19 -51 -15 -15 4 -38 0 -55 -9 -38 -20 -43 -47 -38 -232 3
-124 7 -155 24 -194 51 -110 144 -171 262 -171 85 0 143 23 199 79 62 62 77
103 81 222 4 116 -4 143 -50 162 -34 14 -34 3 8 162 21 82 26 113 18 134 -12
34 -53 51 -91 37 -24 -8 -32 -22 -55 -89 l-27 -80 0 92 c-1 87 -2 93 -27 112
-15 12 -34 21 -44 21 -10 0 -29 -9 -44 -21z m73 -22 c6 -8 12 -76 13 -173 2
-98 7 -159 13 -158 6 0 27 62 47 139 20 76 41 142 46 147 5 5 22 8 38 6 41 -4
41 -37 1 -183 l-32 -120 -54 -5 c-75 -8 -101 -47 -65 -98 11 -16 25 -22 55
-22 45 0 52 -17 12 -26 -53 -11 -81 -26 -114 -60 -45 -46 -29 -55 20 -11 22
20 53 39 68 43 68 15 78 20 78 45 0 22 -5 25 -50 29 -46 5 -50 7 -53 34 -2 16
2 32 10 37 16 11 139 11 154 1 32 -21 43 -101 28 -195 -11 -64 -63 -138 -122
-174 -179 -107 -392 19 -392 232 l0 51 35 -4 c20 -2 42 1 51 8 11 10 18 10 26
2 17 -17 69 -15 90 5 16 15 18 35 18 217 0 166 3 205 16 224 17 25 46 29 63 9z
m-111 -209 c8 -8 12 -48 12 -113 0 -107 -7 -125 -47 -125 -33 0 -43 29 -43
126 0 67 4 92 17 106 19 21 44 23 61 6z m-110 -30 c7 -7 12 -44 12 -98 0 -91
-8 -110 -45 -110 -37 0 -45 20 -45 106 0 62 4 87 16 98 18 19 45 21 62 4z"/>
<path d="M680 1454 c-101 -26 -180 -73 -265 -159 -131 -131 -181 -262 -172
-450 6 -118 30 -196 89 -286 79 -123 200 -212 343 -255 72 -21 237 -24 305 -5
198 55 368 220 424 409 94 321 -99 663 -421 746 -76 20 -229 20 -303 0z m293
-29 c132 -34 271 -138 341 -254 206 -340 9 -773 -385 -848 -337 -63 -659 208
-659 555 0 309 250 561 555 562 50 0 117 -7 148 -15z"/>
<path d="M790 1272 c-19 -20 -39 -29 -62 -30 -42 -1 -68 -32 -68 -81 0 -35 -2
-37 -28 -33 -18 2 -37 -4 -52 -16 l-25 -20 0 -214 c0 -195 2 -217 21 -259 86
-186 320 -233 461 -92 70 70 78 97 81 280 3 155 2 163 -18 183 -16 16 -31 21
-51 18 l-29 -5 0 88 c0 49 -5 100 -12 114 -11 24 -48 42 -76 37 -7 -2 -26 11
-41 27 -36 39 -64 39 -101 3z m78 -14 c8 -8 12 -66 12 -195 0 -115 4 -183 10
-183 6 0 10 56 10 148 0 117 3 152 16 170 18 26 37 28 58 6 14 -13 16 -47 16
-214 l0 -198 -32 -7 c-47 -10 -105 -45 -124 -73 -23 -34 -8 -41 22 -9 30 33
68 53 117 62 l37 7 0 92 c0 98 7 116 47 116 38 0 46 -31 41 -179 -5 -158 -22
-207 -91 -266 -41 -35 -117 -65 -167 -65 -104 0 -215 82 -244 181 -20 67 -23
418 -4 437 18 18 56 14 68 -7 5 -11 10 -68 10 -127 0 -70 3 -105 10 -98 5 5
11 85 12 178 3 148 5 170 21 180 12 8 22 8 35 0 15 -10 18 -33 22 -169 4 -114
8 -160 18 -163 9 -3 12 38 12 180 0 188 4 208 40 208 9 0 21 -5 28 -12z"/>
</g>
</svg>
