<?xml version="1.0" standalone="no"?>
<!DOCTYPE svg PUBLIC "-//W3C//DTD SVG 20010904//EN"
 "http://www.w3.org/TR/2001/REC-SVG-20010904/DTD/svg10.dtd">
<svg version="1.0" xmlns="http://www.w3.org/2000/svg"
 width="301.000000pt" height="299.000000pt" viewBox="0 0 301.000000 299.000000"
 preserveAspectRatio="xMidYMid meet">
<metadata>
Created by potrace 1.16, written by Peter Selinger 2001-2019
</metadata>
<g transform="translate(0.000000,299.000000) scale(0.100000,-0.100000)"
fill="#000000" stroke="none">
<path d="M159 2927 c-24 -13 -57 -43 -74 -66 l-30 -43 -3 -341 c-2 -188 0
-357 3 -375 4 -21 24 -52 53 -82 l47 -49 -32 -26 c-18 -14 -42 -44 -53 -65
-19 -37 -20 -59 -20 -385 0 -323 1 -348 20 -384 10 -21 33 -50 51 -65 l31 -26
-41 -41 c-22 -23 -46 -58 -52 -78 -6 -23 -9 -157 -7 -383 l3 -346 30 -43 c17
-23 50 -53 74 -66 44 -23 47 -23 388 -23 384 0 386 0 450 73 l30 34 28 -34
c56 -70 69 -73 450 -73 381 0 394 3 450 73 l28 34 30 -34 c17 -19 48 -43 69
-54 37 -19 57 -20 392 -17 l354 3 44 31 c23 18 53 51 65 75 23 41 23 48 23
383 0 382 -2 390 -72 452 l-35 31 34 28 c70 56 73 69 73 450 0 381 -3 394 -73
450 l-34 28 34 30 c73 64 73 66 73 450 0 341 0 344 -23 388 -13 24 -43 58 -66
74 l-43 30 -346 3 c-222 2 -360 -1 -383 -7 -20 -6 -54 -29 -77 -52 l-41 -42
-27 32 c-14 18 -44 41 -65 51 -36 19 -61 20 -384 20 -326 0 -348 -1 -385 -20
-21 -11 -51 -35 -66 -54 l-27 -33 -34 37 c-63 70 -61 70 -445 70 -342 0 -345
0 -389 -23z m732 -100 c54 -36 58 -60 58 -382 0 -323 -4 -346 -59 -383 l-34
-23 -323 3 -323 3 -32 33 -33 32 0 334 0 334 25 27 c14 15 34 31 45 35 11 5
160 9 331 9 308 1 311 1 345 -22z m960 7 c55 -28 59 -52 59 -385 0 -258 -2
-306 -16 -335 -30 -63 -38 -64 -389 -64 -352 0 -364 2 -391 65 -20 49 -21 620
0 669 28 66 25 66 384 66 274 0 328 -2 353 -16z m949 3 c13 -7 35 -28 47 -46
23 -34 23 -38 23 -345 0 -340 -1 -344 -59 -383 -34 -23 -38 -23 -343 -23 -342
0 -351 2 -388 63 -19 30 -20 52 -20 335 0 336 3 356 62 392 31 19 50 20 343
20 228 0 317 -4 335 -13z m-940 -962 c47 -42 50 -65 50 -382 0 -432 29 -403
-403 -403 -317 0 -340 3 -382 50 -19 21 -20 36 -20 355 l0 333 25 27 c14 15
34 31 45 36 11 4 165 7 341 6 306 -2 323 -3 344 -22z m972 -13 l33 -32 3 -323
c3 -450 35 -417 -403 -417 -329 0 -349 3 -385 62 -19 31 -20 50 -20 336 0 336
3 356 62 392 32 20 46 20 355 18 l323 -3 32 -33z m-1940 8 c47 -36 49 -54 46
-399 l-3 -323 -33 -29 -32 -29 -326 0 c-354 0 -368 2 -393 57 -7 16 -11 137
-11 349 l0 326 34 34 34 34 330 0 c312 0 331 -1 354 -20z m-4 -944 c55 -29 57
-41 57 -386 0 -343 -1 -352 -55 -383 -25 -15 -67 -17 -345 -17 -347 0 -360 2
-390 60 -22 43 -22 637 0 680 31 60 29 60 383 60 259 0 328 -3 350 -14z m957
0 c63 -27 65 -39 65 -391 0 -352 -2 -364 -65 -391 -50 -20 -620 -20 -670 0
-63 27 -65 39 -65 391 0 349 1 358 62 388 28 14 77 17 336 17 239 0 310 -3
337 -14z m958 0 c67 -27 67 -29 67 -393 0 -288 -2 -331 -16 -352 -34 -47 -61
-51 -385 -51 -331 0 -355 4 -384 61 -22 41 -22 647 -1 688 30 57 51 61 384 61
233 0 310 -3 335 -14z"/>
<path d="M284 2707 l-39 -37 110 -110 110 -110 -113 -113 -112 -113 40 -39 40
-39 113 111 112 112 110 -113 109 -112 40 39 39 39 -111 111 -112 112 110 110
109 110 -39 40 -40 40 -110 -110 -111 -110 -108 110 -109 110 -38 -38z"/>
<path d="M1445 2787 c-94 -32 -158 -88 -197 -172 -32 -71 -32 -182 0 -247 53
-106 143 -168 258 -176 93 -6 158 15 221 72 75 68 98 122 98 231 0 74 -4 97
-23 133 -29 55 -91 115 -146 142 -55 26 -158 34 -211 17z m152 -122 c74 -31
113 -92 113 -175 0 -57 -10 -81 -49 -123 -39 -43 -74 -57 -139 -57 -50 0 -65
5 -101 31 -68 49 -98 142 -70 216 14 37 66 92 104 109 40 18 98 17 142 -1z"/>
<path d="M2360 2730 c-76 -26 -162 -114 -184 -190 -36 -121 -11 -215 79 -305
93 -93 195 -117 312 -74 151 57 233 219 187 372 -15 51 -29 73 -79 122 -92 92
-194 117 -315 75z m188 -119 c46 -23 67 -46 87 -94 49 -118 -29 -244 -159
-255 -116 -9 -203 79 -194 199 5 67 38 118 96 149 48 25 122 26 170 1z"/>
<path d="M1225 1780 l-39 -40 107 -108 108 -108 -110 -115 -110 -114 37 -38
36 -37 113 112 113 113 113 -113 112 -112 38 37 37 38 -112 112 -113 113 110
110 110 110 -41 40 -40 40 -109 -110 -109 -111 -106 111 -105 111 -40 -41z"/>
<path d="M2390 1817 c-235 -66 -308 -360 -130 -521 63 -57 122 -80 205 -80
264 0 402 316 223 510 -75 81 -199 119 -298 91z m123 -118 c21 -5 54 -24 74
-42 86 -75 85 -199 0 -274 -52 -46 -106 -60 -165 -44 -85 22 -142 97 -142 186
0 54 16 88 62 132 48 46 106 60 171 42z"/>
<path d="M477 1820 c-59 -15 -108 -45 -153 -92 -68 -70 -79 -99 -79 -208 0
-85 3 -100 27 -140 64 -108 158 -165 274 -164 120 0 225 69 277 183 30 64 30
178 0 242 -60 131 -214 211 -346 179z m115 -120 c76 -21 138 -102 138 -180 0
-116 -119 -210 -229 -181 -183 48 -191 308 -10 359 46 14 58 14 101 2z"/>
<path d="M285 780 l-39 -40 109 -110 110 -110 -113 -113 -112 -113 40 -39 41
-40 111 114 110 113 112 -111 112 -111 36 37 37 38 -110 112 -111 113 104 106
c56 58 104 109 106 113 1 4 -14 22 -33 41 l-35 34 -109 -108 -108 -108 -109
112 -109 111 -40 -41z"/>
<path d="M1391 789 c-186 -93 -225 -326 -82 -482 58 -63 127 -91 221 -92 88 0
145 23 209 85 56 55 83 112 89 191 7 103 -17 169 -86 239 -67 67 -124 90 -222
90 -55 0 -78 -6 -129 -31z m212 -100 c32 -17 77 -60 93 -91 20 -39 18 -122 -6
-167 -85 -167 -335 -111 -348 77 -4 70 17 113 77 160 37 28 50 32 102 32 33 0
70 -5 82 -11z"/>
<path d="M2205 779 l-39 -40 109 -109 110 -110 -111 -113 -111 -112 39 -40 39
-39 112 112 112 112 112 -112 112 -111 38 39 38 39 -105 108 c-58 60 -105 112
-105 117 0 5 46 56 103 113 l103 105 -38 41 -38 41 -110 -110 -110 -110 -110
110 -110 109 -40 -40z"/>
</g>
</svg>
