<svg id="Capa_1" data-name="Capa 1" xmlns="http://www.w3.org/2000/svg" viewBox="0 0 103.55 76.31"><defs><style>.cls-1{fill:#fff;}</style></defs><path class="cls-1" d="M60.12,39.74c2.43,2.3,4.62,4.23,6.66,6.32,4.65,4.79,9.3,9.59,13.8,14.53A22.4,22.4,0,0,1,84,66c.48,1,.28,2.33.39,3.51-1.11,0-2.33.24-3.3-.14a68.74,68.74,0,0,1-9-4.06Q57.93,57.18,44,48.69a3.63,3.63,0,0,0-4.15-.09L3.77,68.39a6.74,6.74,0,0,1-1.15.67c-.8.23-1.64.34-2.46.5A8.33,8.33,0,0,1,.09,67c1.75-5.85,5.66-10.35,10-14.33,5.42-5,11.32-9.52,17-14.23.68-.56,1.39-1.07,2.34-1.8-.8-1-1.47-1.91-2.2-2.75-4.62-5.34-8.24-11.2-9.55-18.26A17.71,17.71,0,0,1,17.34,12c.1-4.27,1.25-5.26,5.53-5.11a45.64,45.64,0,0,0,5.61-.08c2.62-.22,4.37.88,5.82,3,3.32,4.85,6.78,9.6,10.15,14.41,1.14,1.64,2.27,1.71,4,.72C60.54,18.08,73,12,86.43,8.53A50.65,50.65,0,0,1,99.61,7.17c3.46,0,4,1.3,3.74,4.72a23.12,23.12,0,0,0,.11,5.06c.44,3-.66,5.08-3.38,6.24-4.51,1.92-9,3.74-13.59,5.59Q74.34,33.7,62.2,38.61C61.64,38.84,61.12,39.19,60.12,39.74Z"/></svg>